AtkinsonHyperlegibleMono-Medium.sfdir
StartChar: exclam
Encoding: 33 33 254
Width: 632
GlyphClass: 1
Flags: W
LayerCount: 2
Fore
SplineSet
258 496 m 1,0,-1
 258 668 l 1,1,-1
 374 668 l 1,2,-1
 374 496 l 1,3,-1
 351 211 l 1,4,-1
 280 211 l 1,5,-1
 258 496 l 1,0,-1
262.5 10.5 m 128,-1,7
 240 33 240 33 240 64 c 256,8,9
 240 95 240 95 262.5 117 c 128,-1,10
 285 139 285 139 316 139 c 256,11,12
 347 139 347 139 369 117 c 128,-1,13
 391 95 391 95 391 64 c 0,14,15
 391 32 391 32 369 10 c 128,-1,16
 347 -12 347 -12 316 -12 c 256,17,6
 285 -12 285 -12 262.5 10.5 c 128,-1,7
EndSplineSet
EndChar
StartChar: quotedbl
Encoding: 34 34 284
Width: 632
GlyphClass: 1
Flags: W
LayerCount: 2
Fore
SplineSet
163 668 m 1,0,-1
 272 668 l 1,1,-1
 256 426 l 1,2,-1
 179 426 l 1,3,-1
 163 668 l 1,0,-1
360 668 m 1,4,-1
 470 668 l 1,5,-1
 454 426 l 1,6,-1
 376 426 l 1,7,-1
 360 668 l 1,4,-1
EndSplineSet
EndChar
StartChar: ampersand
Encoding: 38 38 289
Width: 632
GlyphClass: 1
Flags: W
LayerCount: 2
Fore
SplineSet
123 12 m 128,-1,1
 74 36 74 36 47.5 79 c 128,-1,2
 21 122 21 122 21 179 c 0,3,4
 21 244 21 244 63 297 c 128,-1,5
 105 350 105 350 182 385 c 1,6,7
 150 422 150 422 133 461 c 128,-1,8
 116 500 116 500 116 537 c 0,9,10
 116 582 116 582 138.5 618 c 128,-1,11
 161 654 161 654 200 674.5 c 128,-1,12
 239 695 239 695 288 695 c 0,13,14
 331 695 331 695 368.5 675.5 c 128,-1,15
 406 656 406 656 428.5 620 c 128,-1,16
 451 584 451 584 451 537 c 0,17,18
 451 482 451 482 417 437.5 c 128,-1,19
 383 393 383 393 322 361 c 1,20,-1
 442 221 l 1,21,22
 469 277 469 277 476 356 c 1,23,-1
 567 356 l 1,24,25
 561 296 561 296 543.5 241.5 c 128,-1,26
 526 187 526 187 501 147 c 1,27,-1
 622 0 l 1,28,-1
 504 0 l 1,29,-1
 440 76 l 1,30,31
 356 -12 356 -12 237 -12 c 0,32,0
 172 -12 172 -12 123 12 c 128,-1,1
382 145 m 1,34,-1
 235 317 l 1,35,36
 125 268 125 268 125 186 c 0,37,38
 125 136 125 136 158.5 107.5 c 128,-1,39
 192 79 192 79 244 79 c 0,40,33
 329 79 329 79 382 145 c 1,34,-1
339.5 472 m 128,-1,42
 363 501 363 501 363 535 c 0,43,44
 363 571 363 571 341 591.5 c 128,-1,45
 319 612 319 612 286 612 c 0,46,47
 252 612 252 612 230.5 591 c 128,-1,48
 209 570 209 570 209 538 c 0,49,50
 209 512 209 512 224 486 c 128,-1,51
 239 460 239 460 274 423 c 1,52,41
 316 443 316 443 339.5 472 c 128,-1,42
EndSplineSet
EndChar
StartChar: asterisk
Encoding: 42 42 260
Width: 632
GlyphClass: 1
Flags: W
LayerCount: 2
Fore
SplineSet
184 364 m 1,0,-1
 263 472 l 1,1,-1
 135 512 l 1,2,-1
 156 576 l 1,3,-1
 283 535 l 1,4,-1
 283 668 l 1,5,-1
 350 668 l 1,6,-1
 350 535 l 1,7,-1
 476 576 l 1,8,-1
 498 512 l 1,9,-1
 371 472 l 1,10,-1
 450 364 l 1,11,-1
 396 324 l 1,12,-1
 316 431 l 1,13,-1
 239 325 l 1,14,-1
 184 364 l 1,0,-1
EndSplineSet
EndChar
StartChar: slash
Encoding: 47 47 262
Width: 632
GlyphClass: 5
Flags: W
LayerCount: 2
Fore
SplineSet
471 708 m 1,0,-1
 582 708 l 1,1,-1
 161 -90 l 1,2,-1
 50 -90 l 1,3,-1
 471 708 l 1,0,-1
EndSplineSet
EndChar
StartChar: four
Encoding: 52 52 233
Width: 632
GlyphClass: 5
Flags: W
LayerCount: 2
Fore
SplineSet
376 157 m 1,0,-1
 46 157 l 1,1,-1
 46 247 l 1,2,-1
 369 668 l 1,3,-1
 485 668 l 1,4,-1
 485 255 l 1,5,-1
 587 255 l 1,6,-1
 587 157 l 1,7,-1
 485 157 l 1,8,-1
 485 0 l 1,9,-1
 376 0 l 1,10,-1
 376 157 l 1,0,-1
376 255 m 1,11,-1
 376 526 l 1,12,-1
 372 526 l 1,13,-1
 162 255 l 1,14,-1
 376 255 l 1,11,-1
EndSplineSet
EndChar
StartChar: six
Encoding: 54 54 235
Width: 632
GlyphClass: 1
Flags: W
LayerCount: 2
Fore
SplineSet
139 73.5 m 128,-1,1
 74 159 74 159 74 301 c 0,2,3
 74 467 74 467 139 573.5 c 128,-1,4
 204 680 204 680 343 680 c 0,5,6
 417 680 417 680 465.5 651 c 128,-1,7
 514 622 514 622 540 573 c 1,8,-1
 441 536 l 1,9,10
 428 564 428 564 400.5 580.5 c 128,-1,11
 373 597 373 597 337 597 c 0,12,13
 268 597 268 597 227.5 533 c 128,-1,14
 187 469 187 469 184 363 c 1,15,16
 208 400 208 400 251 422.5 c 128,-1,17
 294 445 294 445 351 445 c 0,18,19
 413 445 413 445 462.5 416.5 c 128,-1,20
 512 388 512 388 540.5 337 c 128,-1,21
 569 286 569 286 569 221 c 256,22,23
 569 156 569 156 538.5 103 c 128,-1,24
 508 50 508 50 452.5 19 c 128,-1,25
 397 -12 397 -12 326 -12 c 0,26,0
 204 -12 204 -12 139 73.5 c 128,-1,1
422 111.5 m 128,-1,28
 458 151 458 151 458 216 c 256,29,30
 458 281 458 281 422 321 c 128,-1,31
 386 361 386 361 326 361 c 256,32,33
 266 361 266 361 229 321 c 128,-1,34
 192 281 192 281 192 216 c 256,35,36
 192 151 192 151 228.5 111.5 c 128,-1,37
 265 72 265 72 326 72 c 0,38,27
 386 72 386 72 422 111.5 c 128,-1,28
EndSplineSet
EndChar
StartChar: eight
Encoding: 56 56 237
Width: 632
GlyphClass: 1
Flags: W
LayerCount: 2
Fore
SplineSet
183 15 m 128,-1,1
 125 41 125 41 92 88.5 c 128,-1,2
 59 136 59 136 59 198 c 0,3,4
 59 256 59 256 92 302 c 128,-1,5
 125 348 125 348 184 373 c 1,6,7
 159 396 159 396 145 428 c 128,-1,8
 131 460 131 460 131 497 c 0,9,10
 131 548 131 548 155 590 c 128,-1,11
 179 632 179 632 221.5 657 c 128,-1,12
 264 682 264 682 316 682 c 0,13,14
 369 682 369 682 411 657 c 128,-1,15
 453 632 453 632 477 590 c 128,-1,16
 501 548 501 548 501 497 c 0,17,18
 501 460 501 460 487 428 c 128,-1,19
 473 396 473 396 449 373 c 1,20,21
 507 348 507 348 540 302 c 128,-1,22
 573 256 573 256 573 197 c 0,23,24
 573 135 573 135 540 88 c 128,-1,25
 507 41 507 41 449 15 c 128,-1,26
 391 -11 391 -11 316 -11 c 256,27,0
 241 -11 241 -11 183 15 c 128,-1,1
420.5 114 m 128,-1,29
 461 147 461 147 461 197 c 256,30,31
 461 247 461 247 420.5 279 c 128,-1,32
 380 311 380 311 316 311 c 0,33,34
 251 311 251 311 211 279.5 c 128,-1,35
 171 248 171 248 171 197 c 0,36,37
 171 147 171 147 211.5 114 c 128,-1,38
 252 81 252 81 316 81 c 256,39,28
 380 81 380 81 420.5 114 c 128,-1,29
382 428.5 m 128,-1,41
 409 456 409 456 409 496 c 0,42,43
 409 535 409 535 382 562.5 c 128,-1,44
 355 590 355 590 316 590 c 256,45,46
 277 590 277 590 249.5 562.5 c 128,-1,47
 222 535 222 535 222 496 c 0,48,49
 222 456 222 456 249.5 428.5 c 128,-1,50
 277 401 277 401 316 401 c 256,51,40
 355 401 355 401 382 428.5 c 128,-1,41
EndSplineSet
EndChar
StartChar: equal
Encoding: 61 61 315
Width: 632
GlyphClass: 1
Flags: W
LayerCount: 2
Fore
SplineSet
64 390 m 1,0,-1
 569 390 l 1,1,-1
 569 296 l 1,2,-1
 64 296 l 1,3,-1
 64 390 l 1,0,-1
64 207 m 1,4,-1
 569 207 l 1,5,-1
 569 113 l 1,6,-1
 64 113 l 1,7,-1
 64 207 l 1,4,-1
EndSplineSet
EndChar
StartChar: A
Encoding: 65 65 2
Width: 632
GlyphClass: 2
Flags: W
AnchorPoint: "Anchor-2" 599 10 basechar 0
AnchorPoint: "Anchor-1" 316 668 basechar 0
AnchorPoint: "Anchor-0" 316 0 basechar 0
LayerCount: 2
Fore
SplineSet
257 668 m 1,0,-1
 376 668 l 1,1,-1
 599 0 l 1,2,-1
 492 0 l 1,3,-1
 447 141 l 1,4,-1
 182 141 l 1,5,-1
 136 0 l 1,6,-1
 33 0 l 1,7,-1
 257 668 l 1,0,-1
420 234 m 1,8,-1
 316 552 l 1,9,-1
 312 552 l 1,10,-1
 208 234 l 1,11,-1
 420 234 l 1,8,-1
EndSplineSet
Substitution2: "Single Substitution lookup 14 subtable" ordfeminine
AlternateSubs2: "'aalt' Access All Alternates in Latin lookup 0 subtable" ordfeminine
EndChar
StartChar: C
Encoding: 67 67 14
Width: 632
GlyphClass: 2
Flags: W
AnchorPoint: "Anchor-1" 338 668 basechar 0
AnchorPoint: "Anchor-0" 337 0 basechar 0
LayerCount: 2
Fore
SplineSet
187.5 31.5 m 128,-1,1
 123 75 123 75 88 153.5 c 128,-1,2
 53 232 53 232 53 335 c 0,3,4
 53 437 53 437 89 515.5 c 128,-1,5
 125 594 125 594 190 637 c 128,-1,6
 255 680 255 680 340 680 c 0,7,8
 419 680 419 680 481.5 639.5 c 128,-1,9
 544 599 544 599 576 526 c 1,10,-1
 485 492 l 1,11,12
 465 538 465 538 428.5 563.5 c 128,-1,13
 392 589 392 589 342 589 c 0,14,15
 293 589 293 589 252.5 559 c 128,-1,16
 212 529 212 529 188 471.5 c 128,-1,17
 164 414 164 414 164 335 c 0,18,19
 164 255 164 255 188 197 c 128,-1,20
 212 139 212 139 253 109.5 c 128,-1,21
 294 80 294 80 344 80 c 0,22,23
 392 80 392 80 430 105 c 128,-1,24
 468 130 468 130 489 176 c 1,25,-1
 579 143 l 1,26,27
 544 68 544 68 481.5 28 c 128,-1,28
 419 -12 419 -12 337 -12 c 0,29,0
 252 -12 252 -12 187.5 31.5 c 128,-1,1
EndSplineSet
EndChar
StartChar: H
Encoding: 72 72 37
Width: 632
GlyphClass: 2
Flags: W
AnchorPoint: "Anchor-1" 316 668 basechar 0
AnchorPoint: "Anchor-0" 316 0 basechar 0
LayerCount: 2
Fore
SplineSet
58 668 m 1,0,-1
 171 668 l 1,1,-1
 171 394 l 1,2,-1
 461 394 l 1,3,-1
 461 668 l 1,4,-1
 574 668 l 1,5,-1
 574 0 l 1,6,-1
 461 0 l 1,7,-1
 461 295 l 1,8,-1
 171 295 l 1,9,-1
 171 0 l 1,10,-1
 58 0 l 1,11,-1
 58 668 l 1,0,-1
EndSplineSet
EndChar
StartChar: I
Encoding: 73 73 39
Width: 632
GlyphClass: 2
Flags: W
AnchorPoint: "Anchor-2" 506 10 basechar 0
AnchorPoint: "Anchor-1" 316 668 basechar 0
AnchorPoint: "Anchor-0" 316 0 basechar 0
LayerCount: 2
Fore
SplineSet
126 83 m 1,0,-1
 260 83 l 1,1,-1
 260 585 l 1,2,-1
 126 585 l 1,3,-1
 126 668 l 1,4,-1
 506 668 l 1,5,-1
 506 585 l 1,6,-1
 373 585 l 1,7,-1
 373 83 l 1,8,-1
 506 83 l 1,9,-1
 506 0 l 1,10,-1
 126 0 l 1,11,-1
 126 83 l 1,0,-1
EndSplineSet
EndChar
StartChar: J
Encoding: 74 74 48
Width: 632
GlyphClass: 2
Flags: W
AnchorPoint: "Anchor-1" 478 668 basechar 0
AnchorPoint: "Anchor-0" 316 0 basechar 0
LayerCount: 2
Fore
SplineSet
116 38.5 m 128,-1,1
 53 89 53 89 43 184 c 1,2,-1
 148 219 l 1,3,4
 151 150 151 150 189.5 114.5 c 128,-1,5
 228 79 228 79 288 79 c 0,6,7
 421 79 421 79 421 224 c 2,8,-1
 421 668 l 1,9,-1
 534 668 l 1,10,-1
 534 224 l 2,11,12
 534 111 534 111 469.5 49.5 c 128,-1,13
 405 -12 405 -12 287 -12 c 0,14,0
 179 -12 179 -12 116 38.5 c 128,-1,1
EndSplineSet
Substitution2: "Single Substitution lookup 13 subtable" uni004A0301
AlternateSubs2: "'aalt' Access All Alternates in Latin lookup 0 subtable" uni004A0301
EndChar
StartChar: N
Encoding: 78 78 57
Width: 632
GlyphClass: 2
Flags: W
AnchorPoint: "Anchor-1" 316 668 basechar 0
AnchorPoint: "Anchor-0" 303 0 basechar 0
LayerCount: 2
Fore
SplineSet
68 668 m 1,0,-1
 205 668 l 1,1,-1
 461 139 l 1,2,-1
 465 139 l 1,3,-1
 465 668 l 1,4,-1
 564 668 l 1,5,-1
 564 0 l 1,6,-1
 427 0 l 1,7,-1
 171 529 l 1,8,-1
 167 529 l 1,9,-1
 167 0 l 1,10,-1
 68 0 l 1,11,-1
 68 668 l 1,0,-1
EndSplineSet
EndChar
StartChar: O
Encoding: 79 79 62
Width: 632
GlyphClass: 2
Flags: W
AnchorPoint: "Anchor-3" 619 668 basechar 0
AnchorPoint: "Anchor-2" 572 10 basechar 0
AnchorPoint: "Anchor-1" 317 668 basechar 0
AnchorPoint: "Anchor-0" 317 0 basechar 0
LayerCount: 2
Fore
SplineSet
168.5 31.5 m 128,-1,1
 106 75 106 75 72.5 153 c 128,-1,2
 39 231 39 231 39 334 c 256,3,4
 39 437 39 437 72.5 515.5 c 128,-1,5
 106 594 106 594 168.5 637 c 128,-1,6
 231 680 231 680 316 680 c 0,7,8
 402 680 402 680 464.5 637 c 128,-1,9
 527 594 527 594 560.5 515.5 c 128,-1,10
 594 437 594 437 594 334 c 256,11,12
 594 231 594 231 560.5 153 c 128,-1,13
 527 75 527 75 464.5 31.5 c 128,-1,14
 402 -12 402 -12 316 -12 c 0,15,0
 231 -12 231 -12 168.5 31.5 c 128,-1,1
437.5 146 m 128,-1,17
 483 212 483 212 483 334 c 256,18,19
 483 456 483 456 437.5 522.5 c 128,-1,20
 392 589 392 589 316 589 c 0,21,22
 241 589 241 589 195.5 522.5 c 128,-1,23
 150 456 150 456 150 334 c 0,24,25
 150 213 150 213 195.5 146.5 c 128,-1,26
 241 80 241 80 316 80 c 0,27,16
 392 80 392 80 437.5 146 c 128,-1,17
EndSplineSet
Substitution2: "Single Substitution lookup 14 subtable" ordmasculine
AlternateSubs2: "'aalt' Access All Alternates in Latin lookup 0 subtable" ordmasculine
EndChar
StartChar: P
Encoding: 80 80 71
Width: 632
GlyphClass: 2
Flags: W
AnchorPoint: "Anchor-1" 323 668 basechar 0
AnchorPoint: "Anchor-0" 323 0 basechar 0
LayerCount: 2
Fore
SplineSet
93 668 m 1,0,-1
 341 668 l 2,1,2
 452 668 452 668 519.5 616 c 128,-1,3
 587 564 587 564 587 462 c 0,4,5
 587 359 587 359 519.5 306.5 c 128,-1,6
 452 254 452 254 341 254 c 2,7,-1
 198 254 l 1,8,-1
 198 0 l 1,9,-1
 93 0 l 1,10,-1
 93 668 l 1,0,-1
478 462 m 0,12,13
 478 522 478 522 440 549.5 c 128,-1,14
 402 577 402 577 336 577 c 2,15,-1
 198 577 l 1,16,-1
 198 345 l 1,17,-1
 336 345 l 2,18,11
 478 345 478 345 478 462 c 0,12,13
EndSplineSet
EndChar
StartChar: R
Encoding: 82 82 74
Width: 632
GlyphClass: 2
Flags: W
AnchorPoint: "Anchor-1" 295 668 basechar 0
AnchorPoint: "Anchor-0" 314 0 basechar 0
LayerCount: 2
Fore
SplineSet
85 668 m 1,0,-1
 320 668 l 2,1,2
 429 668 429 668 495 618 c 128,-1,3
 561 568 561 568 561 468 c 0,4,5
 561 387 561 387 515.5 340 c 128,-1,6
 470 293 470 293 391 279 c 1,7,-1
 582 0 l 1,8,-1
 456 0 l 1,9,-1
 279 268 l 1,10,-1
 190 268 l 1,11,-1
 190 0 l 1,12,-1
 85 0 l 1,13,-1
 85 668 l 1,0,-1
415 385.5 m 128,-1,15
 451 412 451 412 451 468 c 256,16,17
 451 524 451 524 415 550.5 c 128,-1,18
 379 577 379 577 318 577 c 2,19,-1
 190 577 l 1,20,-1
 190 359 l 1,21,-1
 318 359 l 2,22,14
 379 359 379 359 415 385.5 c 128,-1,15
EndSplineSet
EndChar
StartChar: V
Encoding: 86 86 96
Width: 632
GlyphClass: 2
Flags: W
AnchorPoint: "Anchor-1" 317 668 basechar 0
AnchorPoint: "Anchor-0" 317 0 basechar 0
LayerCount: 2
Fore
SplineSet
40 668 m 1,0,-1
 152 668 l 1,1,-1
 317 121 l 1,2,-1
 321 121 l 1,3,-1
 486 668 l 1,4,-1
 592 668 l 1,5,-1
 376 0 l 1,6,-1
 256 0 l 1,7,-1
 40 668 l 1,0,-1
EndSplineSet
EndChar
StartChar: W
Encoding: 87 87 97
Width: 632
GlyphClass: 2
Flags: W
AnchorPoint: "Anchor-1" 317 668 basechar 0
AnchorPoint: "Anchor-0" 318 0 basechar 0
LayerCount: 2
Fore
SplineSet
10 668 m 1,0,-1
 103 668 l 1,1,-1
 178 143 l 1,2,-1
 182 143 l 1,3,-1
 266 668 l 1,4,-1
 369 668 l 1,5,-1
 452 143 l 1,6,-1
 456 143 l 1,7,-1
 531 668 l 1,8,-1
 623 668 l 1,9,-1
 509 0 l 1,10,-1
 400 0 l 1,11,-1
 319 517 l 1,12,-1
 315 517 l 1,13,-1
 234 0 l 1,14,-1
 125 0 l 1,15,-1
 10 668 l 1,0,-1
EndSplineSet
EndChar
StartChar: h
Encoding: 104 104 147
Width: 632
GlyphClass: 2
Flags: W
AnchorPoint: "Anchor-1" 315 796 basechar 0
AnchorPoint: "Anchor-0" 315 0 basechar 0
LayerCount: 2
Fore
SplineSet
95 708 m 1,0,-1
 205 708 l 1,1,-1
 205 426 l 1,2,3
 225 458 225 458 267.5 483.5 c 128,-1,4
 310 509 310 509 367 509 c 0,5,6
 456 509 456 509 499 460 c 128,-1,7
 542 411 542 411 542 323 c 2,8,-1
 542 0 l 1,9,-1
 432 0 l 1,10,-1
 432 297 l 2,11,12
 432 422 432 422 330 422 c 0,13,14
 271 422 271 422 238 380.5 c 128,-1,15
 205 339 205 339 205 263 c 2,16,-1
 205 0 l 1,17,-1
 95 0 l 1,18,-1
 95 708 l 1,0,-1
EndSplineSet
EndChar
StartChar: m
Encoding: 109 109 167
Width: 632
GlyphClass: 2
Flags: W
AnchorPoint: "Anchor-1" 315 496 basechar 0
AnchorPoint: "Anchor-0" 318 0 basechar 0
LayerCount: 2
Fore
SplineSet
57 496 m 1,0,-1
 133 496 l 1,1,-1
 144 446 l 1,2,3
 159 474 159 474 186.5 491.5 c 128,-1,4
 214 509 214 509 250 509 c 0,5,6
 324 509 324 509 351 447 c 1,7,8
 366 474 366 474 394.5 491.5 c 128,-1,9
 423 509 423 509 461 509 c 0,10,11
 519 509 519 509 548 473 c 128,-1,12
 577 437 577 437 577 376 c 2,13,-1
 577 0 l 1,14,-1
 484 0 l 1,15,-1
 484 343 l 2,16,17
 484 422 484 422 430 422 c 0,18,19
 399 422 399 422 381.5 396.5 c 128,-1,20
 364 371 364 371 364 323 c 2,21,-1
 364 0 l 1,22,-1
 270 0 l 1,23,-1
 270 343 l 2,24,25
 270 422 270 422 217 422 c 0,26,27
 187 422 187 422 168.5 396 c 128,-1,28
 150 370 150 370 150 322 c 2,29,-1
 150 0 l 1,30,-1
 57 0 l 1,31,-1
 57 496 l 1,0,-1
EndSplineSet
EndChar
StartChar: o
Encoding: 111 111 173
Width: 632
GlyphClass: 2
Flags: W
AnchorPoint: "Anchor-3" 588 496 basechar 0
AnchorPoint: "Anchor-2" 551 10 basechar 0
AnchorPoint: "Anchor-1" 316 496 basechar 0
AnchorPoint: "Anchor-0" 316 0 basechar 0
LayerCount: 2
Fore
SplineSet
190.5 16.5 m 128,-1,1
 132 45 132 45 96 104 c 128,-1,2
 60 163 60 163 60 249 c 256,3,4
 60 335 60 335 96 393.5 c 128,-1,5
 132 452 132 452 190.5 480.5 c 128,-1,6
 249 509 249 509 316 509 c 256,7,8
 383 509 383 509 441.5 480.5 c 128,-1,9
 500 452 500 452 536.5 393.5 c 128,-1,10
 573 335 573 335 573 249 c 256,11,12
 573 163 573 163 536.5 104.5 c 128,-1,13
 500 46 500 46 441.5 17 c 128,-1,14
 383 -12 383 -12 316 -12 c 256,15,0
 249 -12 249 -12 190.5 16.5 c 128,-1,1
420 119.5 m 128,-1,17
 461 164 461 164 461 249 c 0,18,19
 461 333 461 333 419.5 377.5 c 128,-1,20
 378 422 378 422 316 422 c 256,21,22
 254 422 254 422 212.5 377.5 c 128,-1,23
 171 333 171 333 171 249 c 256,24,25
 171 165 171 165 212.5 120 c 128,-1,26
 254 75 254 75 316 75 c 0,27,16
 379 75 379 75 420 119.5 c 128,-1,17
EndSplineSet
Substitution2: "Single Substitution lookup 14 subtable" ordmasculine
AlternateSubs2: "'aalt' Access All Alternates in Latin lookup 0 subtable" ordmasculine
EndChar
StartChar: p
Encoding: 112 112 182
Width: 632
GlyphClass: 2
Flags: W
AnchorPoint: "Anchor-1" 294 496 basechar 0
AnchorPoint: "Anchor-0" 294 0 basechar 0
LayerCount: 2
Fore
SplineSet
80 496 m 1,0,-1
 173 496 l 1,1,-1
 191 419 l 1,2,3
 215 461 215 461 260.5 485 c 128,-1,4
 306 509 306 509 357 509 c 0,5,6
 424 509 424 509 475.5 477.5 c 128,-1,7
 527 446 527 446 555.5 387 c 128,-1,8
 584 328 584 328 584 248 c 0,9,10
 584 167 584 167 555.5 108.5 c 128,-1,11
 527 50 527 50 475.5 19 c 128,-1,12
 424 -12 424 -12 357 -12 c 0,13,14
 306 -12 306 -12 260 12.5 c 128,-1,15
 214 37 214 37 190 77 c 1,16,-1
 190 -162 l 1,17,-1
 80 -162 l 1,18,-1
 80 496 l 1,0,-1
431.5 121 m 128,-1,20
 471 166 471 166 471 248 c 0,21,22
 471 329 471 329 431.5 375.5 c 128,-1,23
 392 422 392 422 328 422 c 256,24,25
 264 422 264 422 225 377 c 128,-1,26
 186 332 186 332 186 250 c 0,27,28
 186 167 186 167 225 121.5 c 128,-1,29
 264 76 264 76 328 76 c 256,30,19
 392 76 392 76 431.5 121 c 128,-1,20
EndSplineSet
EndChar
StartChar: r
Encoding: 114 114 185
Width: 632
GlyphClass: 2
Flags: W
AnchorPoint: "Anchor-1" 323 496 basechar 0
AnchorPoint: "Anchor-0" 191 0 basechar 0
LayerCount: 2
Fore
SplineSet
137 496 m 1,0,-1
 222 496 l 1,1,-1
 243 388 l 1,2,3
 280 448 280 448 338.5 477.5 c 128,-1,4
 397 507 397 507 467 507 c 0,5,6
 511 507 511 507 551 497 c 1,7,-1
 551 387 l 1,8,9
 502 404 502 404 446 404 c 0,10,11
 354 404 354 404 300 351.5 c 128,-1,12
 246 299 246 299 246 199 c 2,13,-1
 246 0 l 1,14,-1
 137 0 l 1,15,-1
 137 496 l 1,0,-1
EndSplineSet
EndChar
StartChar: t
Encoding: 116 116 194
Width: 632
GlyphClass: 2
Flags: W
AnchorPoint: "Anchor-3" 353 548 basechar 0
AnchorPoint: "Anchor-1" 287 496 basechar 0
AnchorPoint: "Anchor-0" 329 0 basechar 0
LayerCount: 2
Fore
SplineSet
268 10.5 m 128,-1,1
 239 21 239 21 226 48.5 c 128,-1,2
 213 76 213 76 213 130 c 2,3,-1
 213 412 l 1,4,-1
 109 412 l 1,5,-1
 109 496 l 1,6,-1
 213 496 l 1,7,-1
 213 620 l 1,8,-1
 323 620 l 1,9,-1
 323 496 l 1,10,-1
 530 496 l 1,11,-1
 530 412 l 1,12,-1
 323 412 l 1,13,-1
 323 151 l 2,14,15
 323 113 323 113 335 101 c 128,-1,16
 347 89 347 89 383 89 c 2,17,-1
 480 89 l 1,18,-1
 480 0 l 1,19,-1
 352 0 l 2,20,0
 297 0 297 0 268 10.5 c 128,-1,1
EndSplineSet
EndChar
StartChar: u
Encoding: 117 117 198
Width: 632
GlyphClass: 2
Flags: W
AnchorPoint: "Anchor-3" 568 496 basechar 0
AnchorPoint: "Anchor-2" 533 10 basechar 0
AnchorPoint: "Anchor-1" 315 496 basechar 0
AnchorPoint: "Anchor-0" 309 0 basechar 0
LayerCount: 2
Fore
SplineSet
136.5 38.5 m 128,-1,1
 96 89 96 89 96 185 c 2,2,-1
 96 496 l 1,3,-1
 205 496 l 1,4,-1
 205 214 l 2,5,6
 205 147 205 147 225.5 111 c 128,-1,7
 246 75 246 75 304 75 c 0,8,9
 363 75 363 75 393.5 113.5 c 128,-1,10
 424 152 424 152 424 229 c 2,11,-1
 424 496 l 1,12,-1
 533 496 l 1,13,-1
 533 0 l 1,14,-1
 441 0 l 1,15,-1
 425 75 l 1,16,17
 377 -12 377 -12 271 -12 c 0,18,0
 177 -12 177 -12 136.5 38.5 c 128,-1,1
EndSplineSet
EndChar
StartChar: v
Encoding: 118 118 207
Width: 632
GlyphClass: 2
Flags: W
AnchorPoint: "Anchor-1" 317 496 basechar 0
AnchorPoint: "Anchor-0" 317 0 basechar 0
LayerCount: 2
Fore
SplineSet
56 496 m 1,0,-1
 170 496 l 1,1,-1
 316 120 l 1,2,-1
 320 120 l 1,3,-1
 464 496 l 1,4,-1
 577 496 l 1,5,-1
 373 0 l 1,6,-1
 259 0 l 1,7,-1
 56 496 l 1,0,-1
EndSplineSet
EndChar
StartChar: w
Encoding: 119 119 208
Width: 632
GlyphClass: 2
Flags: W
AnchorPoint: "Anchor-1" 317 496 basechar 0
AnchorPoint: "Anchor-0" 316 0 basechar 0
LayerCount: 2
Fore
SplineSet
24 496 m 1,0,-1
 117 496 l 1,1,-1
 194 130 l 1,2,-1
 198 130 l 1,3,-1
 272 496 l 1,4,-1
 362 496 l 1,5,-1
 438 131 l 1,6,-1
 442 131 l 1,7,-1
 517 496 l 1,8,-1
 608 496 l 1,9,-1
 494 0 l 1,10,-1
 397 0 l 1,11,-1
 318 372 l 1,12,-1
 314 372 l 1,13,-1
 236 0 l 1,14,-1
 139 0 l 1,15,-1
 24 496 l 1,0,-1
EndSplineSet
EndChar
StartChar: braceleft
Encoding: 123 123 270
Width: 632
GlyphClass: 1
Flags: W
LayerCount: 2
Fore
SplineSet
247.5 -132 m 128,-1,1
 217 -102 217 -102 217 -31 c 2,2,-1
 217 135 l 2,3,4
 217 171 217 171 209 190.5 c 128,-1,5
 201 210 201 210 181.5 219 c 128,-1,6
 162 228 162 228 124 230 c 1,7,-1
 124 317 l 1,8,9
 162 319 162 319 182 327.5 c 128,-1,10
 202 336 202 336 209.5 355.5 c 128,-1,11
 217 375 217 375 217 411 c 2,12,-1
 217 578 l 2,13,14
 217 648 217 648 247.5 678 c 128,-1,15
 278 708 278 708 358 708 c 2,16,-1
 486 708 l 1,17,-1
 486 623 l 1,18,-1
 371 623 l 2,19,20
 342 623 342 623 331.5 614 c 128,-1,21
 321 605 321 605 321 581 c 2,22,-1
 321 407 l 2,23,24
 321 348 321 348 302.5 319.5 c 128,-1,25
 284 291 284 291 239 276 c 1,26,-1
 239 270 l 1,27,28
 283 256 283 256 302 227.5 c 128,-1,29
 321 199 321 199 321 140 c 2,30,-1
 321 -34 l 2,31,32
 321 -58 321 -58 331.5 -67 c 128,-1,33
 342 -76 342 -76 371 -76 c 2,34,-1
 486 -76 l 1,35,-1
 486 -162 l 1,36,-1
 358 -162 l 2,37,0
 278 -162 278 -162 247.5 -132 c 128,-1,1
EndSplineSet
EndChar
StartChar: braceright
Encoding: 125 125 271
Width: 632
GlyphClass: 1
Flags: W
LayerCount: 2
Fore
SplineSet
147 -76 m 1,0,-1
 262 -76 l 2,1,2
 290 -76 290 -76 300.5 -67 c 128,-1,3
 311 -58 311 -58 311 -34 c 2,4,-1
 311 140 l 2,5,6
 311 199 311 199 330 227.5 c 128,-1,7
 349 256 349 256 394 270 c 1,8,-1
 394 276 l 1,9,10
 349 291 349 291 330 319.5 c 128,-1,11
 311 348 311 348 311 407 c 2,12,-1
 311 581 l 2,13,14
 311 605 311 605 300.5 614 c 128,-1,15
 290 623 290 623 262 623 c 2,16,-1
 147 623 l 1,17,-1
 147 708 l 1,18,-1
 275 708 l 2,19,20
 355 708 355 708 385.5 678 c 128,-1,21
 416 648 416 648 416 578 c 2,22,-1
 416 411 l 2,23,24
 416 375 416 375 423.5 355.5 c 128,-1,25
 431 336 431 336 450.5 327.5 c 128,-1,26
 470 319 470 319 508 317 c 1,27,-1
 508 230 l 1,28,29
 470 228 470 228 450.5 219 c 128,-1,30
 431 210 431 210 423.5 190.5 c 128,-1,31
 416 171 416 171 416 135 c 2,32,-1
 416 -31 l 2,33,34
 416 -101 416 -101 385.5 -131.5 c 128,-1,35
 355 -162 355 -162 275 -162 c 2,36,-1
 147 -162 l 1,37,-1
 147 -76 l 1,0,-1
EndSplineSet
EndChar
StartChar: asciitilde
Encoding: 126 126 324
Width: 632
GlyphClass: 1
Flags: W
LayerCount: 2
Fore
SplineSet
117.5 299 m 128,-1,1
 147 336 147 336 209 336 c 0,2,3
 236 336 236 336 261.5 327.5 c 128,-1,4
 287 319 287 319 325 302 c 0,5,6
 355 288 355 288 375.5 280.5 c 128,-1,7
 396 273 396 273 415 273 c 0,8,9
 470 273 470 273 470 352 c 1,10,-1
 550 327 l 1,11,12
 544 257 544 257 514 219.5 c 128,-1,13
 484 182 484 182 423 182 c 0,14,15
 396 182 396 182 370.5 190.5 c 128,-1,16
 345 199 345 199 307 216 c 0,17,18
 277 230 277 230 256.5 237.5 c 128,-1,19
 236 245 236 245 217 245 c 0,20,21
 162 245 162 245 162 166 c 1,22,-1
 82 192 l 1,23,0
 88 262 88 262 117.5 299 c 128,-1,1
EndSplineSet
EndChar
StartChar: yen
Encoding: 165 165 308
Width: 632
GlyphClass: 1
Flags: W
LayerCount: 2
Fore
SplineSet
260 83 m 1,0,-1
 116 83 l 1,1,-1
 116 141 l 1,2,-1
 260 141 l 1,3,-1
 260 220 l 1,4,-1
 116 220 l 1,5,-1
 116 278 l 1,6,-1
 248 278 l 1,7,-1
 29 668 l 1,8,-1
 161 668 l 1,9,-1
 317 370 l 1,10,-1
 321 370 l 1,11,-1
 477 668 l 1,12,-1
 604 668 l 1,13,-1
 385 278 l 1,14,-1
 517 278 l 1,15,-1
 517 220 l 1,16,-1
 374 220 l 1,17,-1
 374 141 l 1,18,-1
 517 141 l 1,19,-1
 517 83 l 1,20,-1
 374 83 l 1,21,-1
 374 0 l 1,22,-1
 260 0 l 1,23,-1
 260 83 l 1,0,-1
EndSplineSet
EndChar
StartChar: copyright
Encoding: 169 169 292
Width: 632
GlyphClass: 1
Flags: W
LayerCount: 2
Fore
SplineSet
162.5 33.5 m 128,-1,1
 95 80 95 80 57.5 159 c 128,-1,2
 20 238 20 238 20 334 c 0,3,4
 20 429 20 429 57.5 508 c 128,-1,5
 95 587 95 587 162.5 633.5 c 128,-1,6
 230 680 230 680 316 680 c 256,7,8
 402 680 402 680 469.5 633.5 c 128,-1,9
 537 587 537 587 574.5 508 c 128,-1,10
 612 429 612 429 612 334 c 0,11,12
 612 238 612 238 574.5 159 c 128,-1,13
 537 80 537 80 469.5 33.5 c 128,-1,14
 402 -13 402 -13 316 -13 c 256,15,0
 230 -13 230 -13 162.5 33.5 c 128,-1,1
204.5 194.5 m 128,-1,17
 163 246 163 246 163 335 c 0,18,19
 163 423 163 423 206.5 474.5 c 128,-1,20
 250 526 250 526 319 526 c 0,21,22
 363 526 363 526 397 503 c 128,-1,23
 431 480 431 480 449 438 c 1,24,-1
 383 410 l 1,25,26
 364 459 364 459 321 459 c 0,27,28
 287 459 287 459 264.5 427.5 c 128,-1,29
 242 396 242 396 242 335 c 256,30,31
 242 274 242 274 264.5 242.5 c 128,-1,32
 287 211 287 211 320 211 c 0,33,34
 344 211 344 211 359.5 221.5 c 128,-1,35
 375 232 375 232 385 254 c 1,36,-1
 450 227 l 1,37,38
 430 188 430 188 396 165.5 c 128,-1,39
 362 143 362 143 318 143 c 0,40,16
 246 143 246 143 204.5 194.5 c 128,-1,17
439.5 79.5 m 128,-1,42
 494 118 494 118 524.5 185 c 128,-1,43
 555 252 555 252 555 334 c 256,44,45
 555 416 555 416 524.5 483 c 128,-1,46
 494 550 494 550 439.5 588 c 128,-1,47
 385 626 385 626 316 626 c 256,48,49
 247 626 247 626 193 588 c 128,-1,50
 139 550 139 550 108.5 483 c 128,-1,51
 78 416 78 416 78 334 c 256,52,53
 78 252 78 252 108.5 185 c 128,-1,54
 139 118 139 118 193 79.5 c 128,-1,55
 247 41 247 41 316 41 c 256,56,41
 385 41 385 41 439.5 79.5 c 128,-1,42
EndSplineSet
EndChar
StartChar: logicalnot
Encoding: 172 172 323
Width: 632
GlyphClass: 1
Flags: W
LayerCount: 2
Fore
SplineSet
470 310 m 1,0,-1
 66 310 l 1,1,-1
 66 405 l 1,2,-1
 567 405 l 1,3,-1
 567 79 l 1,4,-1
 470 79 l 1,5,-1
 470 310 l 1,0,-1
EndSplineSet
EndChar
StartChar: uni00B3
Encoding: 179 179 246
Width: 632
GlyphClass: 1
Flags: W
LayerCount: 2
Fore
SplineSet
216.5 383.5 m 128,-1,1
 178 410 178 410 162 455 c 1,2,-1
 234 476 l 1,3,4
 242 449 242 449 262 433.5 c 128,-1,5
 282 418 282 418 314 418 c 0,6,7
 347 418 347 418 369 435 c 128,-1,8
 391 452 391 452 391 481 c 0,9,10
 391 522 391 522 359.5 536.5 c 128,-1,11
 328 551 328 551 273 548 c 1,12,-1
 273 612 l 1,13,-1
 293 611 l 1,14,15
 381 611 381 611 381 671 c 0,16,17
 381 698 381 698 361.5 712 c 128,-1,18
 342 726 342 726 314 726 c 0,19,20
 255 726 255 726 238 672 c 1,21,-1
 167 693 l 1,22,23
 182 737 182 737 222 761.5 c 128,-1,24
 262 786 262 786 319 786 c 0,25,26
 378 786 378 786 419.5 757.5 c 128,-1,27
 461 729 461 729 461 675 c 0,28,29
 461 645 461 645 445 621 c 128,-1,30
 429 597 429 597 403 583 c 1,31,32
 435 570 435 570 453 542.5 c 128,-1,33
 471 515 471 515 471 483 c 0,34,35
 471 422 471 422 426 389.5 c 128,-1,36
 381 357 381 357 314 357 c 0,37,0
 255 357 255 357 216.5 383.5 c 128,-1,1
EndSplineSet
EndChar
StartChar: paragraph
Encoding: 182 182 290
Width: 632
GlyphClass: 1
Flags: W
LayerCount: 2
Fore
SplineSet
129.5 359 m 128,-1,1
 83 409 83 409 83 479 c 0,2,3
 83 531 83 531 110 574.5 c 128,-1,4
 137 618 137 618 187 643 c 128,-1,5
 237 668 237 668 302 668 c 2,6,-1
 556 668 l 1,7,-1
 556 611 l 1,8,-1
 514 611 l 1,9,-1
 514 -162 l 1,10,-1
 438 -162 l 1,11,-1
 438 611 l 1,12,-1
 335 611 l 1,13,-1
 335 -162 l 1,14,-1
 260 -162 l 1,15,-1
 260 294 l 1,16,0
 176 309 176 309 129.5 359 c 128,-1,1
EndSplineSet
EndChar
StartChar: ordmasculine
Encoding: 186 186 224
Width: 632
GlyphClass: 1
Flags: W
LayerCount: 2
Fore
SplineSet
231.5 355 m 128,-1,1
 193 375 193 375 169.5 415 c 128,-1,2
 146 455 146 455 146 514 c 256,3,4
 146 573 146 573 169.5 613 c 128,-1,5
 193 653 193 653 231.5 673 c 128,-1,6
 270 693 270 693 316 693 c 0,7,8
 388 693 388 693 437 647 c 128,-1,9
 486 601 486 601 486 514 c 256,10,11
 486 427 486 427 437 381 c 128,-1,12
 388 335 388 335 316 335 c 0,13,0
 270 335 270 335 231.5 355 c 128,-1,1
379 430.5 m 128,-1,15
 403 461 403 461 403 514 c 256,16,17
 403 567 403 567 379 598 c 128,-1,18
 355 629 355 629 316 629 c 0,19,20
 278 629 278 629 254 598 c 128,-1,21
 230 567 230 567 230 514 c 0,22,23
 230 462 230 462 254 431 c 128,-1,24
 278 400 278 400 316 400 c 0,25,14
 355 400 355 400 379 430.5 c 128,-1,15
EndSplineSet
EndChar
StartChar: guillemotright
Encoding: 187 187 281
Width: 632
GlyphClass: 1
Flags: W
LayerCount: 2
Fore
SplineSet
438 250 m 1,0,-1
 290 460 l 1,1,-1
 414 460 l 1,2,-1
 562 250 l 1,3,-1
 414 40 l 1,4,-1
 290 40 l 1,5,-1
 438 250 l 1,0,-1
219 250 m 1,6,-1
 70 460 l 1,7,-1
 194 460 l 1,8,-1
 342 250 l 1,9,-1
 194 40 l 1,10,-1
 70 40 l 1,11,-1
 219 250 l 1,6,-1
EndSplineSet
EndChar
StartChar: onehalf
Encoding: 189 189 241
Width: 632
GlyphClass: 3
Flags: W
LayerCount: 2
Fore
SplineSet
109 569 m 1,0,-1
 41 569 l 1,1,-1
 41 631 l 1,2,3
 79 630 79 630 98 638.5 c 128,-1,4
 117 647 117 647 125 668 c 1,5,-1
 184 668 l 1,6,-1
 184 361 l 1,7,-1
 109 361 l 1,8,-1
 109 569 l 1,0,-1
431 668 m 1,9,-1
 517 668 l 1,10,-1
 154 0 l 1,11,-1
 67 0 l 1,12,-1
 431 668 l 1,9,-1
478 157 m 128,-1,14
 513 190 513 190 513 218 c 0,15,16
 513 236 513 236 502 245 c 128,-1,17
 491 254 491 254 472 254 c 0,18,19
 455 254 455 254 442.5 244.5 c 128,-1,20
 430 235 430 235 426 217 c 1,21,-1
 359 236 l 1,22,23
 388 311 388 311 477 311 c 0,24,25
 527 311 527 311 557.5 288 c 128,-1,26
 588 265 588 265 588 226 c 0,27,28
 588 183 588 183 558.5 148.5 c 128,-1,29
 529 114 529 114 463 66 c 1,30,-1
 590 66 l 1,31,-1
 590 0 l 1,32,-1
 350 0 l 1,33,-1
 350 60 l 1,34,13
 443 124 443 124 478 157 c 128,-1,14
EndSplineSet
Ligature2: "'frac' Diagonal Fractions in Latin lookup 7 subtable" one slash two
EndChar
StartChar: questiondown
Encoding: 191 191 257
Width: 632
GlyphClass: 1
Flags: W
LayerCount: 2
Fore
SplineSet
197.5 -162.5 m 128,-1,1
 146 -143 146 -143 114.5 -104.5 c 128,-1,2
 83 -66 83 -66 83 -12 c 0,3,4
 83 46 83 46 114 84.5 c 128,-1,5
 145 123 145 123 213 166 c 0,6,7
 248 187 248 187 264.5 202 c 128,-1,8
 281 217 281 217 286 231 c 128,-1,9
 291 245 291 245 291 267 c 2,10,-1
 291 297 l 1,11,-1
 401 297 l 1,12,-1
 401 270 l 2,13,14
 401 206 401 206 377 169 c 128,-1,15
 353 132 353 132 290 99 c 0,16,17
 242 73 242 73 218.5 47.5 c 128,-1,18
 195 22 195 22 195 -10 c 0,19,20
 195 -47 195 -47 226.5 -70 c 128,-1,21
 258 -93 258 -93 309 -93 c 0,22,23
 363 -93 363 -93 398 -65 c 128,-1,24
 433 -37 433 -37 444 4 c 1,25,-1
 544 -28 l 1,26,27
 525 -99 525 -99 461 -140.5 c 128,-1,28
 397 -182 397 -182 307 -182 c 0,29,0
 249 -182 249 -182 197.5 -162.5 c 128,-1,1
292 382 m 128,-1,31
 270 404 270 404 270 435 c 256,32,33
 270 466 270 466 292 488 c 128,-1,34
 314 510 314 510 345 510 c 256,35,36
 376 510 376 510 398 488 c 128,-1,37
 420 466 420 466 420 435 c 256,38,39
 420 404 420 404 398.5 382 c 128,-1,40
 377 360 377 360 345 360 c 0,41,30
 314 360 314 360 292 382 c 128,-1,31
EndSplineSet
EndChar
StartChar: Aring
Encoding: 197 197 10
Width: 632
GlyphClass: 2
Flags: W
AnchorPoint: "Anchor-2" 599 10 basechar 0
AnchorPoint: "Anchor-1" 316 850 basechar 0
AnchorPoint: "Anchor-0" 316 0 basechar 0
LayerCount: 2
Fore
SplineSet
213.5 682.5 m 128,-1,1
 200 707 200 707 200 735 c 0,2,3
 200 783 200 783 234 816.5 c 128,-1,4
 268 850 268 850 316 850 c 256,5,6
 364 850 364 850 398 816.5 c 128,-1,7
 432 783 432 783 432 735 c 0,8,9
 432 707 432 707 419 682.5 c 128,-1,10
 406 658 406 658 384 644 c 1,11,-1
 599 0 l 1,12,-1
 492 0 l 1,13,-1
 447 141 l 1,14,-1
 182 141 l 1,15,-1
 136 0 l 1,16,-1
 33 0 l 1,17,-1
 249 643 l 1,18,0
 227 658 227 658 213.5 682.5 c 128,-1,1
420 234 m 1,19,-1
 316 552 l 1,20,-1
 312 552 l 1,21,-1
 208 234 l 1,22,-1
 420 234 l 1,19,-1
352.5 698.5 m 128,-1,24
 367 713 367 713 367 734 c 256,25,26
 367 755 367 755 352.5 770 c 128,-1,27
 338 785 338 785 316 785 c 0,28,29
 296 785 296 785 281 770 c 128,-1,30
 266 755 266 755 266 734 c 256,31,32
 266 713 266 713 281 698.5 c 128,-1,33
 296 684 296 684 316 684 c 0,34,23
 338 684 338 684 352.5 698.5 c 128,-1,24
EndSplineSet
EndChar
StartChar: AE
Encoding: 198 198 12
Width: 632
GlyphClass: 2
Flags: W
AnchorPoint: "Anchor-1" 332 668 basechar 0
AnchorPoint: "Anchor-0" 332 0 basechar 0
LayerCount: 2
Fore
SplineSet
250 668 m 1,0,-1
 623 668 l 1,1,-1
 623 579 l 1,2,-1
 401 579 l 1,3,-1
 401 388 l 1,4,-1
 551 388 l 1,5,-1
 551 300 l 1,6,-1
 401 300 l 1,7,-1
 401 89 l 1,8,-1
 624 89 l 1,9,-1
 624 0 l 1,10,-1
 308 0 l 1,11,-1
 308 146 l 1,12,-1
 153 146 l 1,13,-1
 101 0 l 1,14,-1
 5 0 l 1,15,-1
 250 668 l 1,0,-1
308 229 m 1,16,-1
 308 576 l 1,17,-1
 304 576 l 1,18,-1
 180 229 l 1,19,-1
 308 229 l 1,16,-1
EndSplineSet
EndChar
StartChar: Ccedilla
Encoding: 199 199 17
Width: 632
GlyphClass: 2
Flags: W
AnchorPoint: "Anchor-1" 338 668 basechar 0
LayerCount: 2
Fore
SplineSet
282 -177 m 128,-1,1
 259 -172 259 -172 242 -164 c 1,2,-1
 257 -126 l 1,3,4
 287 -140 287 -140 321 -140 c 0,5,6
 342 -140 342 -140 354 -131 c 128,-1,7
 366 -122 366 -122 366 -109 c 0,8,9
 366 -81 366 -81 327 -81 c 1,10,-1
 289 -86 l 2,11,12
 281 -86 281 -86 276.5 -81.5 c 128,-1,13
 272 -77 272 -77 272 -71 c 0,14,15
 272 -64 272 -64 276 -57 c 2,16,-1
 304 -10 l 1,17,18
 228 -2 228 -2 171 43 c 128,-1,19
 114 88 114 88 83.5 163.5 c 128,-1,20
 53 239 53 239 53 335 c 0,21,22
 53 437 53 437 89 515.5 c 128,-1,23
 125 594 125 594 190 637 c 128,-1,24
 255 680 255 680 340 680 c 0,25,26
 419 680 419 680 481.5 639.5 c 128,-1,27
 544 599 544 599 576 526 c 1,28,-1
 485 492 l 1,29,30
 465 538 465 538 428.5 563.5 c 128,-1,31
 392 589 392 589 342 589 c 0,32,33
 293 589 293 589 252.5 559 c 128,-1,34
 212 529 212 529 188 471.5 c 128,-1,35
 164 414 164 414 164 335 c 0,36,37
 164 255 164 255 188 197 c 128,-1,38
 212 139 212 139 253 109.5 c 128,-1,39
 294 80 294 80 344 80 c 0,40,41
 392 80 392 80 430 105 c 128,-1,42
 468 130 468 130 489 176 c 1,43,-1
 579 143 l 1,44,45
 545 72 545 72 487 32.5 c 128,-1,46
 429 -7 429 -7 352 -11 c 1,47,-1
 329 -48 l 1,48,49
 344 -45 344 -45 361 -45 c 0,50,51
 392 -45 392 -45 414.5 -60.5 c 128,-1,52
 437 -76 437 -76 437 -103 c 0,53,54
 437 -138 437 -138 406 -160 c 128,-1,55
 375 -182 375 -182 327 -182 c 0,56,0
 305 -182 305 -182 282 -177 c 128,-1,1
EndSplineSet
EndChar
StartChar: multiply
Encoding: 215 215 313
Width: 632
GlyphClass: 1
Flags: W
LayerCount: 2
Fore
SplineSet
101 98 m 1,0,-1
 251 248 l 1,1,-1
 99 399 l 1,2,-1
 165 465 l 1,3,-1
 317 313 l 1,4,-1
 468 465 l 1,5,-1
 534 399 l 1,6,-1
 382 248 l 1,7,-1
 532 98 l 1,8,-1
 466 32 l 1,9,-1
 317 182 l 1,10,-1
 167 32 l 1,11,-1
 101 98 l 1,0,-1
EndSplineSet
EndChar
StartChar: Oslash
Encoding: 216 216 68
Width: 632
GlyphClass: 2
Flags: W
AnchorPoint: "Anchor-3" 619 668 basechar 0
AnchorPoint: "Anchor-2" 572 10 basechar 0
AnchorPoint: "Anchor-1" 317 668 basechar 0
AnchorPoint: "Anchor-0" 317 0 basechar 0
LayerCount: 2
Fore
SplineSet
146 50 m 1,1,-1
 102 -8 l 1,2,-1
 55 27 l 1,3,-1
 105 94 l 1,4,5
 73 139 73 139 56 200 c 128,-1,6
 39 261 39 261 39 334 c 0,7,8
 39 437 39 437 72.5 515.5 c 128,-1,9
 106 594 106 594 168.5 637 c 128,-1,10
 231 680 231 680 316 680 c 0,11,12
 419 680 419 680 487 618 c 1,13,-1
 530 675 l 1,14,-1
 578 641 l 1,15,-1
 528 574 l 1,16,17
 594 482 594 482 594 334 c 0,18,19
 594 231 594 231 560.5 153 c 128,-1,20
 527 75 527 75 464.5 31.5 c 128,-1,21
 402 -12 402 -12 316 -12 c 0,22,0
 214 -12 214 -12 146 50 c 1,1,-1
437.5 146 m 128,-1,24
 483 212 483 212 483 334 c 0,25,26
 483 412 483 412 458 474 c 1,27,-1
 204 133 l 1,28,29
 248 80 248 80 316 80 c 0,30,23
 392 80 392 80 437.5 146 c 128,-1,24
316 589 m 0,32,33
 241 589 241 589 195.5 522.5 c 128,-1,34
 150 456 150 456 150 334 c 0,35,36
 150 252 150 252 175 194 c 1,37,-1
 429 535 l 1,38,31
 384 589 384 589 316 589 c 0,32,33
EndSplineSet
EndChar
StartChar: Thorn
Encoding: 222 222 72
Width: 632
GlyphClass: 2
Flags: W
AnchorPoint: "Anchor-1" 312 668 basechar 0
AnchorPoint: "Anchor-0" 312 0 basechar 0
LayerCount: 2
Fore
SplineSet
93 668 m 1,0,-1
 198 668 l 1,1,-1
 198 548 l 1,2,-1
 341 548 l 2,3,4
 451 548 451 548 519 496 c 128,-1,5
 587 444 587 444 587 341 c 256,6,7
 587 238 587 238 519 186 c 128,-1,8
 451 134 451 134 341 134 c 2,9,-1
 198 134 l 1,10,-1
 198 0 l 1,11,-1
 93 0 l 1,12,-1
 93 668 l 1,0,-1
478 341 m 256,14,15
 478 457 478 457 336 457 c 2,16,-1
 198 457 l 1,17,-1
 198 225 l 1,18,-1
 336 225 l 2,19,13
 478 225 478 225 478 341 c 256,14,15
EndSplineSet
EndChar
StartChar: germandbls
Encoding: 223 223 193
Width: 632
GlyphClass: 1
Flags: W
LayerCount: 2
Fore
SplineSet
300 -10 m 1,1,-1
 271 85 l 1,2,3
 298 78 298 78 332 78 c 0,4,5
 403 78 403 78 445 110.5 c 128,-1,6
 487 143 487 143 487 209 c 0,7,8
 487 277 487 277 435 316 c 128,-1,9
 383 355 383 355 302 355 c 2,10,-1
 289 355 l 1,11,-1
 289 443 l 1,12,13
 351 442 351 442 382.5 464 c 128,-1,14
 414 486 414 486 414 522 c 0,15,16
 414 554 414 554 385 575 c 128,-1,17
 356 596 356 596 306 596 c 0,18,19
 245 596 245 596 214.5 563.5 c 128,-1,20
 184 531 184 531 184 460 c 2,21,-1
 184 0 l 1,22,-1
 74 0 l 1,23,-1
 74 464 l 2,24,25
 74 572 74 572 133.5 626 c 128,-1,26
 193 680 193 680 305 680 c 0,27,28
 364 680 364 680 410 660.5 c 128,-1,29
 456 641 456 641 482 606 c 128,-1,30
 508 571 508 571 508 525 c 0,31,32
 508 486 508 486 490 455.5 c 128,-1,33
 472 425 472 425 438 409 c 1,34,35
 509 392 509 392 553.5 337.5 c 128,-1,36
 598 283 598 283 598 207 c 0,37,38
 598 96 598 96 528.5 41.5 c 128,-1,39
 459 -13 459 -13 348 -13 c 0,40,0
 324 -13 324 -13 300 -10 c 1,1,-1
EndSplineSet
EndChar
StartChar: ae
Encoding: 230 230 122
Width: 632
GlyphClass: 2
Flags: W
AnchorPoint: "Anchor-1" 315 496 basechar 0
AnchorPoint: "Anchor-0" 315 0 basechar 0
LayerCount: 2
Fore
SplineSet
51.5 25.5 m 128,-1,1
 13 63 13 63 13 126 c 0,2,3
 13 204 13 204 70.5 244 c 128,-1,4
 128 284 128 284 261 292 c 1,5,-1
 261 323 l 2,6,7
 261 433 261 433 187 433 c 0,8,9
 157 433 157 433 137.5 413.5 c 128,-1,10
 118 394 118 394 110 360 c 1,11,-1
 35 391 l 1,12,13
 54 446 54 446 95 477.5 c 128,-1,14
 136 509 136 509 191 509 c 0,15,16
 283 509 283 509 316 429 c 1,17,18
 338 468 338 468 371.5 488.5 c 128,-1,19
 405 509 405 509 447 509 c 0,20,21
 529 509 529 509 574.5 438 c 128,-1,22
 620 367 620 367 620 256 c 0,23,24
 620 236 620 236 619 226 c 1,25,-1
 336 226 l 1,26,27
 338 144 338 144 370.5 104 c 128,-1,28
 403 64 403 64 447 64 c 0,29,30
 500 64 500 64 530 120 c 1,31,-1
 600 94 l 1,32,33
 574 44 574 44 534 16 c 128,-1,34
 494 -12 494 -12 444 -12 c 0,35,36
 392 -12 392 -12 354 13 c 128,-1,37
 316 38 316 38 294 83 c 1,38,39
 253 -12 253 -12 151 -12 c 0,40,0
 90 -12 90 -12 51.5 25.5 c 128,-1,1
261 199 m 2,42,-1
 261 226 l 1,43,44
 168 220 168 220 132 198 c 128,-1,45
 96 176 96 176 96 132 c 0,46,47
 96 101 96 101 114.5 82 c 128,-1,48
 133 63 133 63 165 63 c 0,49,41
 260 63 260 63 261 199 c 2,42,-1
508 391.5 m 128,-1,51
 485 431 485 431 440 431 c 0,52,53
 401 431 401 431 373.5 397 c 128,-1,54
 346 363 346 363 338 292 c 1,55,-1
 531 292 l 1,56,50
 531 352 531 352 508 391.5 c 128,-1,51
EndSplineSet
EndChar
StartChar: divide
Encoding: 247 247 314
Width: 632
GlyphClass: 1
Flags: W
LayerCount: 2
Fore
SplineSet
63 295 m 1,0,-1
 569 295 l 1,1,-1
 569 201 l 1,2,-1
 63 201 l 1,3,-1
 63 295 l 1,0,-1
267 26.5 m 128,-1,5
 247 47 247 47 247 76 c 0,6,7
 247 104 247 104 267.5 124.5 c 128,-1,8
 288 145 288 145 316 145 c 0,9,10
 345 145 345 145 365 124.5 c 128,-1,11
 385 104 385 104 385 76 c 0,12,13
 385 47 385 47 365 26.5 c 128,-1,14
 345 6 345 6 316 6 c 256,15,4
 287 6 287 6 267 26.5 c 128,-1,5
267.5 372.5 m 128,-1,17
 247 393 247 393 247 421 c 0,18,19
 247 450 247 450 267 470.5 c 128,-1,20
 287 491 287 491 316 491 c 256,21,22
 345 491 345 491 365 470.5 c 128,-1,23
 385 450 385 450 385 421 c 256,24,25
 385 392 385 392 365 372 c 128,-1,26
 345 352 345 352 316 352 c 0,27,16
 288 352 288 352 267.5 372.5 c 128,-1,17
EndSplineSet
EndChar
StartChar: thorn
Encoding: 254 254 183
Width: 632
GlyphClass: 2
Flags: W
AnchorPoint: "Anchor-1" 315 496 basechar 0
AnchorPoint: "Anchor-0" 315 0 basechar 0
LayerCount: 2
Fore
SplineSet
80 708 m 1,0,-1
 190 708 l 1,1,-1
 190 418 l 1,2,3
 215 460 215 460 260.5 484.5 c 128,-1,4
 306 509 306 509 357 509 c 0,5,6
 424 509 424 509 475.5 477 c 128,-1,7
 527 445 527 445 555.5 386 c 128,-1,8
 584 327 584 327 584 247 c 256,9,10
 584 167 584 167 555.5 108.5 c 128,-1,11
 527 50 527 50 475.5 19 c 128,-1,12
 424 -12 424 -12 357 -12 c 0,13,14
 306 -12 306 -12 260 12.5 c 128,-1,15
 214 37 214 37 190 77 c 1,16,-1
 190 -162 l 1,17,-1
 80 -162 l 1,18,-1
 80 708 l 1,0,-1
431.5 121 m 128,-1,20
 471 166 471 166 471 247 c 256,21,22
 471 328 471 328 431.5 374.5 c 128,-1,23
 392 421 392 421 328 421 c 256,24,25
 264 421 264 421 225 377 c 128,-1,26
 186 333 186 333 186 250 c 0,27,28
 186 166 186 166 225 121 c 128,-1,29
 264 76 264 76 328 76 c 256,30,19
 392 76 392 76 431.5 121 c 128,-1,20
EndSplineSet
EndChar
StartChar: Aogonek
Encoding: 260 260 9
Width: 632
GlyphClass: 2
Flags: W
AnchorPoint: "Anchor-1" 316 668 basechar 0
LayerCount: 2
Fore
SplineSet
257 668 m 1,0,-1
 376 668 l 1,1,-1
 599 0 l 1,2,3
 564 -7 564 -7 536.5 -28.5 c 128,-1,4
 509 -50 509 -50 509 -74 c 0,5,6
 509 -92 509 -92 522 -101.5 c 128,-1,7
 535 -111 535 -111 555 -111 c 0,8,9
 571 -111 571 -111 599 -103 c 1,10,-1
 599 -163 l 1,11,12
 574 -172 574 -172 534 -172 c 0,13,14
 475 -172 475 -172 446.5 -147.5 c 128,-1,15
 418 -123 418 -123 418 -89 c 0,16,17
 418 -29 418 -29 491 5 c 1,18,-1
 447 141 l 1,19,-1
 182 141 l 1,20,-1
 136 0 l 1,21,-1
 33 0 l 1,22,-1
 257 668 l 1,0,-1
420 234 m 1,23,-1
 316 552 l 1,24,-1
 312 552 l 1,25,-1
 208 234 l 1,26,-1
 420 234 l 1,23,-1
EndSplineSet
EndChar
StartChar: Eogonek
Encoding: 280 280 31
Width: 632
GlyphClass: 2
Flags: W
AnchorPoint: "Anchor-1" 286 668 basechar 0
LayerCount: 2
Fore
SplineSet
113 668 m 1,0,-1
 547 668 l 1,1,-1
 547 569 l 1,2,-1
 226 569 l 1,3,-1
 226 393 l 1,4,-1
 451 393 l 1,5,-1
 451 295 l 1,6,-1
 226 295 l 1,7,-1
 226 99 l 1,8,-1
 551 99 l 1,9,-1
 551 0 l 1,10,11
 516 -7 516 -7 488.5 -28.5 c 128,-1,12
 461 -50 461 -50 461 -74 c 0,13,14
 461 -92 461 -92 474 -101.5 c 128,-1,15
 487 -111 487 -111 507 -111 c 0,16,17
 523 -111 523 -111 551 -103 c 1,18,-1
 551 -163 l 1,19,20
 526 -172 526 -172 486 -172 c 0,21,22
 427 -172 427 -172 398.5 -147.5 c 128,-1,23
 370 -123 370 -123 370 -89 c 0,24,25
 370 -33 370 -33 433 0 c 1,26,-1
 113 0 l 1,27,-1
 113 668 l 1,0,-1
EndSplineSet
EndChar
StartChar: eogonek
Encoding: 281 281 141
Width: 632
GlyphClass: 2
Flags: W
AnchorPoint: "Anchor-1" 261 496 basechar 0
LayerCount: 2
Fore
SplineSet
339.5 -147.5 m 128,-1,1
 311 -123 311 -123 311 -87 c 0,2,3
 311 -42 311 -42 344 -9 c 1,4,-1
 322 -10 l 2,5,6
 249 -10 249 -10 191.5 21.5 c 128,-1,7
 134 53 134 53 102 111.5 c 128,-1,8
 70 170 70 170 70 249 c 0,9,10
 70 326 70 326 103.5 385 c 128,-1,11
 137 444 137 444 195 476.5 c 128,-1,12
 253 509 253 509 324 509 c 0,13,14
 401 509 401 509 458 471 c 128,-1,15
 515 433 515 433 543.5 368 c 128,-1,16
 572 303 572 303 566 225 c 1,17,-1
 178 225 l 1,18,19
 184 147 184 147 227.5 111 c 128,-1,20
 271 75 271 75 331 75 c 0,21,22
 407 75 407 75 445 125 c 1,23,-1
 537 91 l 1,24,25
 507 48 507 48 456 17 c 0,26,27
 430 1 430 1 415.5 -21 c 128,-1,28
 401 -43 401 -43 401 -67 c 0,29,30
 401 -89 401 -89 415.5 -100 c 128,-1,31
 430 -111 430 -111 451 -111 c 0,32,33
 473 -111 473 -111 492 -103 c 1,34,-1
 492 -162 l 1,35,36
 468 -172 468 -172 427 -172 c 0,37,0
 368 -172 368 -172 339.5 -147.5 c 128,-1,1
423.5 387 m 128,-1,39
 387 424 387 424 326 424 c 0,40,41
 269 424 269 424 229 393 c 128,-1,42
 189 362 189 362 178 295 c 1,43,-1
 462 295 l 1,44,38
 460 350 460 350 423.5 387 c 128,-1,39
EndSplineSet
EndChar
StartChar: Hbar
Encoding: 294 294 38
Width: 632
GlyphClass: 1
Flags: W
LayerCount: 2
Fore
SplineSet
58 508 m 1,0,-1
 8 508 l 1,1,-1
 8 579 l 1,2,-1
 58 579 l 1,3,-1
 58 668 l 1,4,-1
 171 668 l 1,5,-1
 171 579 l 1,6,-1
 461 579 l 1,7,-1
 461 668 l 1,8,-1
 574 668 l 1,9,-1
 574 579 l 1,10,-1
 624 579 l 1,11,-1
 624 508 l 1,12,-1
 574 508 l 1,13,-1
 574 0 l 1,14,-1
 461 0 l 1,15,-1
 461 295 l 1,16,-1
 171 295 l 1,17,-1
 171 0 l 1,18,-1
 58 0 l 1,19,-1
 58 508 l 1,0,-1
461 394 m 1,20,-1
 461 508 l 1,21,-1
 171 508 l 1,22,-1
 171 394 l 1,23,-1
 461 394 l 1,20,-1
EndSplineSet
EndChar
StartChar: iogonek
Encoding: 303 303 156
Width: 632
GlyphClass: 2
Flags: W
AnchorPoint: "Anchor-1" 323 731 basechar 0
LayerCount: 2
Fore
SplineSet
107 84 m 1,0,-1
 278 84 l 1,1,-1
 278 412 l 1,2,-1
 133 412 l 1,3,-1
 133 496 l 1,4,-1
 388 496 l 1,5,-1
 388 84 l 1,6,-1
 559 84 l 1,7,-1
 559 0 l 1,8,9
 515 -11 515 -11 491.5 -31 c 128,-1,10
 468 -51 468 -51 468 -74 c 0,11,12
 468 -93 468 -93 482 -102 c 128,-1,13
 496 -111 496 -111 516 -111 c 0,14,15
 537 -111 537 -111 559 -103 c 1,16,-1
 559 -163 l 1,17,18
 534 -172 534 -172 494 -172 c 0,19,20
 435 -172 435 -172 406 -147.5 c 128,-1,21
 377 -123 377 -123 377 -89 c 0,22,23
 377 -35 377 -35 437 0 c 1,24,-1
 107 0 l 1,25,-1
 107 84 l 1,0,-1
272 609 m 128,-1,27
 251 630 251 630 251 659 c 0,28,29
 251 689 251 689 272 710 c 128,-1,30
 293 731 293 731 323 731 c 0,31,32
 352 731 352 731 373 710 c 128,-1,33
 394 689 394 689 394 659 c 0,34,35
 394 630 394 630 373 609 c 128,-1,36
 352 588 352 588 323 588 c 0,37,26
 293 588 293 588 272 609 c 128,-1,27
EndSplineSet
EndChar
StartChar: Lslash
Encoding: 321 321 55
Width: 632
GlyphClass: 1
Flags: W
LayerCount: 2
Fore
SplineSet
124 243 m 1,0,-1
 31 188 l 1,1,-1
 31 279 l 1,2,-1
 124 334 l 1,3,-1
 124 668 l 1,4,-1
 237 668 l 1,5,-1
 237 401 l 1,6,-1
 413 505 l 1,7,-1
 413 414 l 1,8,-1
 237 310 l 1,9,-1
 237 99 l 1,10,-1
 583 99 l 1,11,-1
 583 0 l 1,12,-1
 124 0 l 1,13,-1
 124 243 l 1,0,-1
EndSplineSet
EndChar
StartChar: OE
Encoding: 338 338 70
Width: 632
GlyphClass: 2
Flags: W
AnchorPoint: "Anchor-1" 317 668 basechar 0
AnchorPoint: "Anchor-0" 317 0 basechar 0
LayerCount: 2
Fore
SplineSet
59.5 80 m 128,-1,1
 7 172 7 172 7 334 c 256,2,3
 7 496 7 496 59.5 588 c 128,-1,4
 112 680 112 680 207 680 c 0,5,6
 288 680 288 680 335 607 c 1,7,-1
 335 668 l 1,8,-1
 622 668 l 1,9,-1
 622 579 l 1,10,-1
 424 579 l 1,11,-1
 424 388 l 1,12,-1
 553 388 l 1,13,-1
 553 300 l 1,14,-1
 424 300 l 1,15,-1
 424 89 l 1,16,-1
 624 89 l 1,17,-1
 624 0 l 1,18,-1
 335 0 l 1,19,-1
 335 61 l 1,20,21
 287 -12 287 -12 207 -12 c 0,22,0
 112 -12 112 -12 59.5 80 c 128,-1,1
304 135.5 m 128,-1,24
 335 199 335 199 335 335 c 256,25,26
 335 471 335 471 304 533.5 c 128,-1,27
 273 596 273 596 219 596 c 0,28,29
 166 596 166 596 135 533 c 128,-1,30
 104 470 104 470 104 335 c 0,31,32
 104 199 104 199 135 135.5 c 128,-1,33
 166 72 166 72 219 72 c 0,34,23
 273 72 273 72 304 135.5 c 128,-1,24
EndSplineSet
EndChar
StartChar: oe
Encoding: 339 339 181
Width: 632
GlyphClass: 2
Flags: W
AnchorPoint: "Anchor-1" 310 496 basechar 0
AnchorPoint: "Anchor-0" 310 0 basechar 0
LayerCount: 2
Fore
SplineSet
316 83 m 1,1,2
 294 36 294 36 259.5 12 c 128,-1,3
 225 -12 225 -12 184 -12 c 0,4,5
 136 -12 136 -12 97 16.5 c 128,-1,6
 58 45 58 45 34.5 104 c 128,-1,7
 11 163 11 163 11 249 c 256,8,9
 11 335 11 335 34.5 393.5 c 128,-1,10
 58 452 58 452 97.5 480.5 c 128,-1,11
 137 509 137 509 186 509 c 0,12,13
 229 509 229 509 265 484.5 c 128,-1,14
 301 460 301 460 324 411 c 1,15,16
 345 458 345 458 379.5 483.5 c 128,-1,17
 414 509 414 509 460 509 c 0,18,19
 540 509 540 509 584 438 c 128,-1,20
 628 367 628 367 628 257 c 0,21,22
 628 237 628 237 627 226 c 1,23,-1
 359 226 l 1,24,25
 361 143 361 143 390.5 103.5 c 128,-1,26
 420 64 420 64 461 64 c 0,27,28
 487 64 487 64 505 77.5 c 128,-1,29
 523 91 523 91 537 118 c 1,30,-1
 608 92 l 1,31,32
 583 43 583 43 545 15.5 c 128,-1,33
 507 -12 507 -12 459 -12 c 0,34,0
 361 -12 361 -12 316 83 c 1,1,2
255 118.5 m 128,-1,36
 282 164 282 164 282 249 c 0,37,38
 282 335 282 335 255 379.5 c 128,-1,39
 228 424 228 424 187 424 c 0,40,41
 147 424 147 424 120 379 c 128,-1,42
 93 334 93 334 93 249 c 256,43,44
 93 164 93 164 119.5 118.5 c 128,-1,45
 146 73 146 73 187 73 c 256,46,35
 228 73 228 73 255 118.5 c 128,-1,36
517.5 391.5 m 128,-1,48
 496 431 496 431 454 431 c 0,49,50
 417 431 417 431 392 397 c 128,-1,51
 367 363 367 363 360 292 c 1,52,-1
 540 292 l 1,53,47
 539 352 539 352 517.5 391.5 c 128,-1,48
EndSplineSet
EndChar
StartChar: uni0162
Encoding: 354 354 85
Width: 632
GlyphClass: 2
Flags: W
AnchorPoint: "Anchor-1" 316 668 basechar 0
LayerCount: 2
Fore
SplineSet
260 569 m 1,0,-1
 56 569 l 1,1,-1
 56 668 l 1,2,-1
 576 668 l 1,3,-1
 576 569 l 1,4,-1
 373 569 l 1,5,-1
 373 0 l 1,6,-1
 341 0 l 1,7,-1
 310 -48 l 1,8,9
 327 -45 327 -45 343 -45 c 0,10,11
 374 -45 374 -45 396.5 -60.5 c 128,-1,12
 419 -76 419 -76 419 -103 c 0,13,14
 419 -138 419 -138 387.5 -160 c 128,-1,15
 356 -182 356 -182 308 -182 c 0,16,17
 262 -182 262 -182 224 -164 c 1,18,-1
 239 -126 l 1,19,20
 267 -140 267 -140 302 -140 c 0,21,22
 324 -140 324 -140 336 -131 c 128,-1,23
 348 -122 348 -122 348 -109 c 0,24,25
 348 -81 348 -81 308 -81 c 0,26,27
 301 -81 301 -81 288 -83.5 c 128,-1,28
 275 -86 275 -86 270 -86 c 0,29,30
 262 -86 262 -86 257.5 -81.5 c 128,-1,31
 253 -77 253 -77 253 -70 c 0,32,33
 253 -62 253 -62 257 -57 c 2,34,-1
 293 0 l 1,35,-1
 260 0 l 1,36,-1
 260 569 l 1,0,-1
EndSplineSet
Substitution2: "'locl' Localized Forms in Latin lookup 4 subtable" uni021A
AlternateSubs2: "'aalt' Access All Alternates in Latin lookup 0 subtable" uni021A
EndChar
StartChar: uogonek
Encoding: 371 371 205
Width: 632
GlyphClass: 2
Flags: W
AnchorPoint: "Anchor-3" 568 496 basechar 0
AnchorPoint: "Anchor-1" 315 496 basechar 0
LayerCount: 2
Fore
SplineSet
136.5 38.5 m 128,-1,1
 96 89 96 89 96 185 c 2,2,-1
 96 496 l 1,3,-1
 205 496 l 1,4,-1
 205 214 l 2,5,6
 205 147 205 147 225.5 111 c 128,-1,7
 246 75 246 75 304 75 c 0,8,9
 363 75 363 75 393.5 113.5 c 128,-1,10
 424 152 424 152 424 229 c 2,11,-1
 424 496 l 1,12,-1
 533 496 l 1,13,-1
 533 0 l 1,14,15
 489 -11 489 -11 465.5 -31 c 128,-1,16
 442 -51 442 -51 442 -74 c 0,17,18
 442 -93 442 -93 456 -102 c 128,-1,19
 470 -111 470 -111 491 -111 c 0,20,21
 511 -111 511 -111 533 -103 c 1,22,-1
 533 -163 l 1,23,24
 508 -172 508 -172 468 -172 c 0,25,26
 409 -172 409 -172 380.5 -147.5 c 128,-1,27
 352 -123 352 -123 352 -89 c 0,28,29
 352 -54 352 -54 374.5 -29.5 c 128,-1,30
 397 -5 397 -5 438 14 c 1,31,-1
 425 75 l 1,32,33
 377 -12 377 -12 271 -12 c 0,34,0
 177 -12 177 -12 136.5 38.5 c 128,-1,1
EndSplineSet
EndChar
StartChar: florin
Encoding: 402 402 286
Width: 632
GlyphClass: 1
Flags: W
LayerCount: 2
Fore
SplineSet
77 -161 m 1,1,-1
 77 -65 l 1,2,3
 103 -75 103 -75 149 -75 c 0,4,5
 207 -75 207 -75 230 -40 c 128,-1,6
 253 -5 253 -5 253 74 c 2,7,-1
 253 414 l 1,8,-1
 79 414 l 1,9,-1
 79 496 l 1,10,-1
 253 496 l 1,11,-1
 253 573 l 2,12,13
 253 628 253 628 266.5 658 c 128,-1,14
 280 688 280 688 312.5 701 c 128,-1,15
 345 714 345 714 405 714 c 2,16,-1
 553 714 l 1,17,-1
 553 626 l 1,18,-1
 415 626 l 2,19,20
 380 626 380 626 369.5 615 c 128,-1,21
 359 604 359 604 359 569 c 2,22,-1
 359 496 l 1,23,-1
 553 496 l 1,24,-1
 553 414 l 1,25,-1
 359 414 l 1,26,-1
 359 44 l 2,27,28
 359 -76 359 -76 309 -124 c 128,-1,29
 259 -172 259 -172 167 -172 c 0,30,0
 121 -172 121 -172 77 -161 c 1,1,-1
EndSplineSet
EndChar
StartChar: uni0306
Encoding: 774 774 351
Width: 0
GlyphClass: 4
Flags: W
AnchorPoint: "Anchor-5" 316 683 basemark 0
AnchorPoint: "Anchor-5" 316 496 mark 0
AnchorPoint: "Anchor-1" 316 496 mark 0
LayerCount: 2
Fore
SplineSet
228 598.5 m 128,-1,1
 193 630 193 630 184 680 c 1,2,-1
 248 680 l 1,3,4
 253 660 253 660 270.5 645.5 c 128,-1,5
 288 631 288 631 316 631 c 256,6,7
 344 631 344 631 362 645.5 c 128,-1,8
 380 660 380 660 385 680 c 1,9,-1
 449 680 l 1,10,11
 440 631 440 631 404.5 599 c 128,-1,12
 369 567 369 567 316 567 c 256,13,0
 263 567 263 567 228 598.5 c 128,-1,1
EndSplineSet
Substitution2: "Single Substitution lookup 12 subtable" uni0306.case
Substitution2: "'case' Case-Sensitive Forms in Latin lookup 9 subtable" uni0306.case
AlternateSubs2: "'aalt' Access All Alternates in Latin lookup 0 subtable" uni0306.case
EndChar
StartChar: uni0307
Encoding: 775 775 337
Width: 0
GlyphClass: 4
Flags: W
AnchorPoint: "Anchor-5" 316 707 basemark 0
AnchorPoint: "Anchor-5" 316 496 mark 0
AnchorPoint: "Anchor-1" 316 496 mark 0
LayerCount: 2
Fore
SplineSet
272.5 601.5 m 128,-1,1
 254 620 254 620 254 645 c 256,2,3
 254 670 254 670 272.5 688.5 c 128,-1,4
 291 707 291 707 316 707 c 0,5,6
 342 707 342 707 360 689 c 128,-1,7
 378 671 378 671 378 645 c 0,8,9
 378 620 378 620 360 601.5 c 128,-1,10
 342 583 342 583 316 583 c 0,11,0
 291 583 291 583 272.5 601.5 c 128,-1,1
EndSplineSet
Substitution2: "Single Substitution lookup 12 subtable" uni0307.case
Substitution2: "'case' Case-Sensitive Forms in Latin lookup 9 subtable" uni0307.case
AlternateSubs2: "'aalt' Access All Alternates in Latin lookup 0 subtable" uni0307.case
EndChar
StartChar: uni0308
Encoding: 776 776 335
Width: 0
GlyphClass: 4
Flags: W
AnchorPoint: "Anchor-5" 316 707 basemark 0
AnchorPoint: "Anchor-5" 316 496 mark 0
AnchorPoint: "Anchor-1" 316 496 mark 0
LayerCount: 2
Fore
SplineSet
366 602.5 m 128,-1,1
 348 621 348 621 348 646 c 256,2,3
 348 671 348 671 366 689 c 128,-1,4
 384 707 384 707 409 707 c 256,5,6
 434 707 434 707 452.5 689 c 128,-1,7
 471 671 471 671 471 646 c 256,8,9
 471 621 471 621 453 602.5 c 128,-1,10
 435 584 435 584 409 584 c 0,11,0
 384 584 384 584 366 602.5 c 128,-1,1
180 602.5 m 128,-1,13
 162 621 162 621 162 646 c 256,14,15
 162 671 162 671 180 689 c 128,-1,16
 198 707 198 707 223 707 c 256,17,18
 248 707 248 707 266.5 689 c 128,-1,19
 285 671 285 671 285 646 c 256,20,21
 285 621 285 621 267 602.5 c 128,-1,22
 249 584 249 584 223 584 c 0,23,12
 198 584 198 584 180 602.5 c 128,-1,13
EndSplineSet
Substitution2: "Single Substitution lookup 12 subtable" uni0308.case
Substitution2: "'case' Case-Sensitive Forms in Latin lookup 9 subtable" uni0308.case
AlternateSubs2: "'aalt' Access All Alternates in Latin lookup 0 subtable" uni0308.case
EndChar
StartChar: uni030A
Encoding: 778 778 353
Width: 0
GlyphClass: 4
Flags: W
AnchorPoint: "Anchor-5" 316 781 basemark 0
AnchorPoint: "Anchor-5" 316 496 mark 0
AnchorPoint: "Anchor-1" 316 496 mark 0
LayerCount: 2
Fore
SplineSet
236.5 588.5 m 128,-1,1
 203 622 203 622 203 668 c 0,2,3
 203 715 203 715 236 748 c 128,-1,4
 269 781 269 781 316 781 c 256,5,6
 363 781 363 781 396.5 748 c 128,-1,7
 430 715 430 715 430 668 c 256,8,9
 430 621 430 621 396.5 588 c 128,-1,10
 363 555 363 555 316 555 c 0,11,0
 270 555 270 555 236.5 588.5 c 128,-1,1
352 631.5 m 128,-1,13
 367 647 367 647 367 668 c 0,14,15
 367 690 367 690 352.5 705 c 128,-1,16
 338 720 338 720 316 720 c 0,17,18
 295 720 295 720 280 705 c 128,-1,19
 265 690 265 690 265 668 c 0,20,21
 265 647 265 647 280 631.5 c 128,-1,22
 295 616 295 616 316 616 c 256,23,12
 337 616 337 616 352 631.5 c 128,-1,13
EndSplineSet
Substitution2: "Single Substitution lookup 12 subtable" uni030A.case
Substitution2: "'case' Case-Sensitive Forms in Latin lookup 9 subtable" uni030A.case
AlternateSubs2: "'aalt' Access All Alternates in Latin lookup 0 subtable" uni030A.case
EndChar
StartChar: uni030B
Encoding: 779 779 344
Width: 0
GlyphClass: 4
Flags: W
AnchorPoint: "Anchor-5" 363 713 basemark 0
AnchorPoint: "Anchor-5" 270 496 mark 0
AnchorPoint: "Anchor-1" 270 496 mark 0
LayerCount: 2
Fore
SplineSet
254 705.5 m 128,-1,1
 265 713 265 713 279 713 c 0,2,3
 297 713 297 713 309 701.5 c 128,-1,4
 321 690 321 690 321 673 c 0,5,6
 321 660 321 660 312.5 648.5 c 128,-1,7
 304 637 304 637 282 619 c 2,8,-1
 225 572 l 1,9,-1
 145 572 l 1,10,-1
 230 681 l 2,11,0
 243 698 243 698 254 705.5 c 128,-1,1
422.5 705.5 m 128,-1,13
 433 713 433 713 447 713 c 0,14,15
 466 713 466 713 477.5 701.5 c 128,-1,16
 489 690 489 690 489 673 c 0,17,18
 489 660 489 660 480.5 648.5 c 128,-1,19
 472 637 472 637 450 619 c 2,20,-1
 394 572 l 1,21,-1
 313 572 l 1,22,-1
 398 681 l 2,23,12
 412 698 412 698 422.5 705.5 c 128,-1,13
EndSplineSet
Substitution2: "Single Substitution lookup 12 subtable" uni030B.case
Substitution2: "'case' Case-Sensitive Forms in Latin lookup 9 subtable" uni030B.case
AlternateSubs2: "'aalt' Access All Alternates in Latin lookup 0 subtable" uni030B.case
EndChar
StartChar: uni0326
Encoding: 806 806 359
Width: 0
GlyphClass: 4
Flags: W
AnchorPoint: "Anchor-4" 323 -243 basemark 0
AnchorPoint: "Anchor-4" 328 0 mark 0
AnchorPoint: "Anchor-0" 328 0 mark 0
LayerCount: 2
Fore
SplineSet
293 -187 m 128,-1,1
 319 -170 319 -170 319 -140 c 0,2,3
 319 -120 319 -120 304.5 -103.5 c 128,-1,4
 290 -87 290 -87 265 -78 c 1,5,-1
 342 -47 l 1,6,7
 376 -65 376 -65 391 -86.5 c 128,-1,8
 406 -108 406 -108 406 -134 c 0,9,10
 406 -180 406 -180 367.5 -210 c 128,-1,11
 329 -240 329 -240 269 -241 c 1,12,-1
 227 -205 l 1,13,0
 267 -204 267 -204 293 -187 c 128,-1,1
EndSplineSet
EndChar
StartChar: uni0327
Encoding: 807 807 360
Width: 0
GlyphClass: 4
Flags: W
AnchorPoint: "Anchor-4" 314 -183 basemark 0
AnchorPoint: "Anchor-4" 314 0 mark 0
AnchorPoint: "Anchor-0" 314 0 mark 0
LayerCount: 2
Fore
SplineSet
259 -177 m 128,-1,1
 236 -172 236 -172 219 -164 c 1,2,-1
 234 -126 l 1,3,4
 264 -140 264 -140 298 -140 c 0,5,6
 319 -140 319 -140 331 -131 c 128,-1,7
 343 -122 343 -122 343 -109 c 0,8,9
 343 -81 343 -81 304 -81 c 1,10,-1
 266 -86 l 2,11,12
 258 -86 258 -86 253.5 -81.5 c 128,-1,13
 249 -77 249 -77 249 -71 c 0,14,15
 249 -64 249 -64 253 -57 c 2,16,-1
 302 23 l 1,17,-1
 339 3 l 1,18,-1
 306 -48 l 1,19,20
 321 -45 321 -45 338 -45 c 0,21,22
 369 -45 369 -45 391.5 -60.5 c 128,-1,23
 414 -76 414 -76 414 -103 c 0,24,25
 414 -138 414 -138 383 -160 c 128,-1,26
 352 -182 352 -182 304 -182 c 0,27,0
 282 -182 282 -182 259 -177 c 128,-1,1
EndSplineSet
EndChar
StartChar: uni0328
Encoding: 808 808 361
Width: 0
GlyphClass: 4
Flags: W
AnchorPoint: "Anchor-2" 407 10 mark 0
LayerCount: 2
Fore
SplineSet
254.5 -147.5 m 128,-1,1
 226 -123 226 -123 226 -89 c 0,2,3
 226 -52 226 -52 251 -27.5 c 128,-1,4
 276 -3 276 -3 320 17 c 1,5,-1
 407 0 l 1,6,7
 363 -11 363 -11 339.5 -31 c 128,-1,8
 316 -51 316 -51 316 -74 c 0,9,10
 316 -93 316 -93 330 -102 c 128,-1,11
 344 -111 344 -111 365 -111 c 0,12,13
 385 -111 385 -111 407 -103 c 1,14,-1
 407 -163 l 1,15,16
 382 -172 382 -172 342 -172 c 0,17,0
 283 -172 283 -172 254.5 -147.5 c 128,-1,1
EndSplineSet
Substitution2: "Single Substitution lookup 12 subtable" uni0328.case
Substitution2: "'case' Case-Sensitive Forms in Latin lookup 9 subtable" uni0328.case
AlternateSubs2: "'aalt' Access All Alternates in Latin lookup 0 subtable" uni0328.case
EndChar
StartChar: uni03A9
Encoding: 937 937 226
Width: 632
GlyphClass: 1
Flags: W
LayerCount: 2
Fore
SplineSet
31 85 m 1,0,-1
 179 85 l 1,1,-1
 179 128 l 1,2,3
 111 166 111 166 70.5 235.5 c 128,-1,4
 30 305 30 305 30 385 c 0,5,6
 30 466 30 466 68.5 533.5 c 128,-1,7
 107 601 107 601 172.5 640.5 c 128,-1,8
 238 680 238 680 316 680 c 256,9,10
 394 680 394 680 459.5 640.5 c 128,-1,11
 525 601 525 601 563.5 533.5 c 128,-1,12
 602 466 602 466 602 385 c 0,13,14
 602 305 602 305 561.5 235.5 c 128,-1,15
 521 166 521 166 453 128 c 1,16,-1
 453 85 l 1,17,-1
 601 85 l 1,18,-1
 601 0 l 1,19,-1
 360 0 l 1,20,-1
 360 190 l 1,21,22
 427 206 427 206 470 261.5 c 128,-1,23
 513 317 513 317 513 388 c 0,24,25
 513 445 513 445 486.5 492 c 128,-1,26
 460 539 460 539 414.5 566.5 c 128,-1,27
 369 594 369 594 316 594 c 256,28,29
 263 594 263 594 217.5 566.5 c 128,-1,30
 172 539 172 539 145.5 492 c 128,-1,31
 119 445 119 445 119 388 c 0,32,33
 119 317 119 317 162.5 261.5 c 128,-1,34
 206 206 206 206 273 190 c 1,35,-1
 273 0 l 1,36,-1
 31 0 l 1,37,-1
 31 85 l 1,0,-1
EndSplineSet
EndChar
StartChar: uni03BC
Encoding: 956 956 227
Width: 632
GlyphClass: 1
Flags: W
LayerCount: 2
Fore
SplineSet
90 496 m 1,0,-1
 199 496 l 1,1,-1
 199 214 l 2,2,3
 199 147 199 147 219 111 c 128,-1,4
 239 75 239 75 294 75 c 0,5,6
 350 75 350 75 379.5 113.5 c 128,-1,7
 409 152 409 152 409 229 c 2,8,-1
 409 496 l 1,9,-1
 519 496 l 1,10,-1
 519 147 l 2,11,12
 519 112 519 112 529 100.5 c 128,-1,13
 539 89 539 89 570 89 c 2,14,-1
 585 89 l 1,15,-1
 585 0 l 1,16,-1
 532 0 l 2,17,18
 478 0 478 0 453 15.5 c 128,-1,19
 428 31 428 31 419 63 c 1,20,21
 399 28 399 28 366.5 8 c 128,-1,22
 334 -12 334 -12 292 -12 c 0,23,24
 261 -12 261 -12 236 -2.5 c 128,-1,25
 211 7 211 7 199 24 c 1,26,-1
 199 -162 l 1,27,-1
 90 -162 l 1,28,-1
 90 496 l 1,0,-1
EndSplineSet
EndChar
StartChar: pi
Encoding: 960 960 228
Width: 632
GlyphClass: 1
Flags: W
LayerCount: 2
Fore
SplineSet
125 413 m 1,0,-1
 43 413 l 1,1,-1
 43 496 l 1,2,-1
 569 496 l 1,3,-1
 569 413 l 1,4,-1
 483 413 l 1,5,-1
 483 128 l 2,6,7
 483 98 483 98 493 89 c 128,-1,8
 503 80 503 80 536 80 c 2,9,-1
 569 80 l 1,10,-1
 569 0 l 1,11,-1
 509 0 l 2,12,13
 459 0 459 0 433.5 9.5 c 128,-1,14
 408 19 408 19 398 44.5 c 128,-1,15
 388 70 388 70 388 122 c 2,16,-1
 388 413 l 1,17,-1
 220 413 l 1,18,-1
 220 0 l 1,19,-1
 125 0 l 1,20,-1
 125 413 l 1,0,-1
EndSplineSet
EndChar
StartChar: quoteleft
Encoding: 8216 8216 278
Width: 632
GlyphClass: 1
Flags: W
LayerCount: 2
Fore
SplineSet
256.5 394 m 128,-1,1
 232 418 232 418 232 453 c 0,2,3
 232 469 232 469 239 489 c 2,4,-1
 312 674 l 1,5,-1
 386 674 l 1,6,-1
 332 535 l 1,7,8
 361 530 361 530 380 506.5 c 128,-1,9
 399 483 399 483 399 453 c 0,10,11
 399 419 399 419 375 394.5 c 128,-1,12
 351 370 351 370 316 370 c 256,13,0
 281 370 281 370 256.5 394 c 128,-1,1
EndSplineSet
EndChar
StartChar: quoteright
Encoding: 8217 8217 279
Width: 632
GlyphClass: 1
Flags: W
LayerCount: 2
Fore
SplineSet
252.5 543.5 m 128,-1,1
 233 567 233 567 233 597 c 0,2,3
 233 631 233 631 257.5 655.5 c 128,-1,4
 282 680 282 680 317 680 c 256,5,6
 352 680 352 680 376 656 c 128,-1,7
 400 632 400 632 400 597 c 0,8,9
 400 577 400 577 393 561 c 2,10,-1
 320 376 l 1,11,-1
 247 376 l 1,12,-1
 301 515 l 1,13,0
 272 520 272 520 252.5 543.5 c 128,-1,1
EndSplineSet
EndChar
StartChar: quotedblright
Encoding: 8221 8221 277
Width: 632
GlyphClass: 1
Flags: W
LayerCount: 2
Fore
SplineSet
366 548.5 m 128,-1,1
 347 571 347 571 347 600 c 0,2,3
 347 634 347 634 371 657.5 c 128,-1,4
 395 681 395 681 428 681 c 0,5,6
 462 681 462 681 485.5 657.5 c 128,-1,7
 509 634 509 634 509 600 c 0,8,9
 509 581 509 581 502 565 c 2,10,-1
 431 385 l 1,11,-1
 360 385 l 1,12,-1
 413 521 l 1,13,0
 385 526 385 526 366 548.5 c 128,-1,1
143 548.5 m 128,-1,15
 124 571 124 571 124 599 c 0,16,17
 124 633 124 633 147.5 656.5 c 128,-1,18
 171 680 171 680 205 680 c 256,19,20
 239 680 239 680 262.5 656.5 c 128,-1,21
 286 633 286 633 286 599 c 0,22,23
 286 585 286 585 279 565 c 2,24,-1
 208 385 l 1,25,-1
 137 385 l 1,26,-1
 189 521 l 1,27,14
 162 526 162 526 143 548.5 c 128,-1,15
EndSplineSet
EndChar
StartChar: quotedblbase
Encoding: 8222 8222 275
Width: 632
GlyphClass: 1
Flags: W
LayerCount: 2
Fore
SplineSet
143 12.5 m 128,-1,1
 124 35 124 35 124 64 c 0,2,3
 124 98 124 98 147.5 121.5 c 128,-1,4
 171 145 171 145 205 145 c 256,5,6
 239 145 239 145 262.5 121.5 c 128,-1,7
 286 98 286 98 286 64 c 0,8,9
 286 49 286 49 279 29 c 2,10,-1
 208 -151 l 1,11,-1
 137 -151 l 1,12,-1
 189 -15 l 1,13,0
 162 -10 162 -10 143 12.5 c 128,-1,1
366 13.5 m 128,-1,15
 347 36 347 36 347 64 c 0,16,17
 347 98 347 98 371 121.5 c 128,-1,18
 395 145 395 145 428 145 c 0,19,20
 462 145 462 145 485.5 121.5 c 128,-1,21
 509 98 509 98 509 64 c 0,22,23
 509 46 509 46 502 30 c 2,24,-1
 431 -150 l 1,25,-1
 360 -150 l 1,26,-1
 413 -14 l 1,27,14
 385 -9 385 -9 366 13.5 c 128,-1,15
EndSplineSet
EndChar
StartChar: dagger
Encoding: 8224 8224 298
Width: 632
GlyphClass: 1
Flags: W
LayerCount: 2
Fore
SplineSet
264 409 m 1,0,-1
 78 409 l 1,1,-1
 78 496 l 1,2,-1
 264 496 l 1,3,-1
 264 668 l 1,4,-1
 369 668 l 1,5,-1
 369 496 l 1,6,-1
 554 496 l 1,7,-1
 554 409 l 1,8,-1
 369 409 l 1,9,-1
 369 0 l 1,10,-1
 264 0 l 1,11,-1
 264 409 l 1,0,-1
EndSplineSet
EndChar
StartChar: ellipsis
Encoding: 8230 8230 253
Width: 632
GlyphClass: 1
Flags: W
LayerCount: 2
Fore
SplineSet
57.5 10 m 128,-1,1
 36 32 36 32 36 63 c 256,2,3
 36 94 36 94 57.5 115 c 128,-1,4
 79 136 79 136 110 136 c 256,5,6
 141 136 141 136 163 115 c 128,-1,7
 185 94 185 94 185 63 c 256,8,9
 185 32 185 32 163 10 c 128,-1,10
 141 -12 141 -12 110 -12 c 256,11,0
 79 -12 79 -12 57.5 10 c 128,-1,1
263.5 10 m 128,-1,13
 242 32 242 32 242 63 c 256,14,15
 242 94 242 94 263.5 115 c 128,-1,16
 285 136 285 136 316 136 c 256,17,18
 347 136 347 136 369 115 c 128,-1,19
 391 94 391 94 391 63 c 256,20,21
 391 32 391 32 369 10 c 128,-1,22
 347 -12 347 -12 316 -12 c 256,23,12
 285 -12 285 -12 263.5 10 c 128,-1,13
469.5 10 m 128,-1,25
 448 32 448 32 448 63 c 256,26,27
 448 94 448 94 469.5 115 c 128,-1,28
 491 136 491 136 522 136 c 256,29,30
 553 136 553 136 575 115 c 128,-1,31
 597 94 597 94 597 63 c 256,32,33
 597 32 597 32 575 10 c 128,-1,34
 553 -12 553 -12 522 -12 c 256,35,24
 491 -12 491 -12 469.5 10 c 128,-1,25
EndSplineSet
EndChar
StartChar: perthousand
Encoding: 8240 8240 333
Width: 632
GlyphClass: 1
Flags: W
LayerCount: 2
Fore
SplineSet
107 431.5 m 128,-1,1
 76 450 76 450 58 481 c 128,-1,2
 40 512 40 512 40 548 c 256,3,4
 40 584 40 584 58 615 c 128,-1,5
 76 646 76 646 107 664 c 128,-1,6
 138 682 138 682 174 682 c 256,7,8
 210 682 210 682 241 664 c 128,-1,9
 272 646 272 646 290.5 615 c 128,-1,10
 309 584 309 584 309 548 c 256,11,12
 309 512 309 512 290.5 481 c 128,-1,13
 272 450 272 450 241 431.5 c 128,-1,14
 210 413 210 413 174 413 c 256,15,0
 138 413 138 413 107 431.5 c 128,-1,1
223.5 498 m 128,-1,17
 244 519 244 519 244 548 c 256,18,19
 244 577 244 577 223.5 597.5 c 128,-1,20
 203 618 203 618 174 618 c 256,21,22
 145 618 145 618 125 597.5 c 128,-1,23
 105 577 105 577 105 548 c 256,24,25
 105 519 105 519 125 498 c 128,-1,26
 145 477 145 477 174 477 c 256,27,16
 203 477 203 477 223.5 498 c 128,-1,17
107 4.5 m 128,-1,29
 76 23 76 23 58 54 c 128,-1,30
 40 85 40 85 40 121 c 256,31,32
 40 157 40 157 58 188 c 128,-1,33
 76 219 76 219 107 237 c 128,-1,34
 138 255 138 255 174 255 c 256,35,36
 210 255 210 255 241 237 c 128,-1,37
 272 219 272 219 290.5 188 c 128,-1,38
 309 157 309 157 309 121 c 256,39,40
 309 85 309 85 290.5 54 c 128,-1,41
 272 23 272 23 241 4.5 c 128,-1,42
 210 -14 210 -14 174 -14 c 256,43,28
 138 -14 138 -14 107 4.5 c 128,-1,29
223.5 71 m 128,-1,45
 244 92 244 92 244 121 c 256,46,47
 244 150 244 150 223.5 170.5 c 128,-1,48
 203 191 203 191 174 191 c 256,49,50
 145 191 145 191 125 170.5 c 128,-1,51
 105 150 105 150 105 121 c 256,52,53
 105 92 105 92 125 71 c 128,-1,54
 145 50 145 50 174 50 c 256,55,44
 203 50 203 50 223.5 71 c 128,-1,45
399 4.5 m 128,-1,57
 368 23 368 23 350 54 c 128,-1,58
 332 85 332 85 332 121 c 256,59,60
 332 157 332 157 350 188 c 128,-1,61
 368 219 368 219 399 237 c 128,-1,62
 430 255 430 255 466 255 c 256,63,64
 502 255 502 255 533 237 c 128,-1,65
 564 219 564 219 582.5 188 c 128,-1,66
 601 157 601 157 601 121 c 256,67,68
 601 85 601 85 582.5 54 c 128,-1,69
 564 23 564 23 533 4.5 c 128,-1,70
 502 -14 502 -14 466 -14 c 256,71,56
 430 -14 430 -14 399 4.5 c 128,-1,57
515.5 71 m 128,-1,73
 536 92 536 92 536 121 c 256,74,75
 536 150 536 150 515.5 170.5 c 128,-1,76
 495 191 495 191 466 191 c 256,77,78
 437 191 437 191 417 170.5 c 128,-1,79
 397 150 397 150 397 121 c 256,80,81
 397 92 397 92 417 71 c 128,-1,82
 437 50 437 50 466 50 c 256,83,72
 495 50 495 50 515.5 71 c 128,-1,73
45 328 m 1,84,-1
 596 525 l 1,85,-1
 596 450 l 1,86,-1
 45 253 l 1,87,-1
 45 328 l 1,84,-1
EndSplineSet
EndChar
StartChar: Euro
Encoding: 8364 8364 305
Width: 632
GlyphClass: 1
Flags: W
LayerCount: 2
Fore
SplineSet
191 58 m 128,-1,1
 124 128 124 128 104 238 c 1,2,-1
 18 238 l 1,3,-1
 47 296 l 1,4,-1
 97 296 l 1,5,6
 96 308 96 308 96 331 c 0,7,8
 96 360 96 360 98 374 c 1,9,-1
 18 374 l 1,10,-1
 47 432 l 1,11,-1
 106 432 l 1,12,13
 129 554 129 554 202 618 c 128,-1,14
 275 682 275 682 371 682 c 0,15,16
 446 682 446 682 505.5 641 c 128,-1,17
 565 600 565 600 597 527 c 1,18,-1
 504 493 l 1,19,20
 485 538 485 538 449.5 563 c 128,-1,21
 414 588 414 588 367 588 c 0,22,23
 309 588 309 588 269 549 c 128,-1,24
 229 510 229 510 214 432 c 1,25,-1
 435 432 l 1,26,-1
 406 374 l 1,27,-1
 206 374 l 1,28,29
 204 348 204 348 204 335 c 0,30,31
 204 324 204 324 206 296 c 1,32,-1
 370 296 l 1,33,-1
 341 238 l 1,34,-1
 215 238 l 1,35,36
 231 166 231 166 270.5 124 c 128,-1,37
 310 82 310 82 368 82 c 0,38,39
 417 82 417 82 452.5 106 c 128,-1,40
 488 130 488 130 508 175 c 1,41,-1
 600 140 l 1,42,43
 568 67 568 67 506.5 27.5 c 128,-1,44
 445 -12 445 -12 366 -12 c 0,45,0
 258 -12 258 -12 191 58 c 128,-1,1
EndSplineSet
EndChar
StartChar: uni20B9
Encoding: 8377 8377 306
Width: 632
GlyphClass: 1
Flags: W
LayerCount: 2
Fore
SplineSet
85 290 m 1,0,-1
 85 346 l 1,1,-1
 218 346 l 2,2,3
 282 346 282 346 318 366.5 c 128,-1,4
 354 387 354 387 361 432 c 1,5,-1
 85 432 l 1,6,-1
 85 491 l 1,7,-1
 361 491 l 1,8,9
 346 577 346 577 218 577 c 2,10,-1
 85 577 l 1,11,-1
 85 668 l 1,12,-1
 563 668 l 1,13,-1
 563 610 l 1,14,-1
 404 610 l 1,15,16
 466 569 466 569 475 491 c 1,17,-1
 563 491 l 1,18,-1
 563 432 l 1,19,-1
 475 432 l 1,20,21
 466 354 466 354 408.5 311.5 c 128,-1,22
 351 269 351 269 257 261 c 1,23,-1
 252 261 l 1,24,-1
 510 0 l 1,25,-1
 368 0 l 1,26,-1
 85 290 l 1,0,-1
EndSplineSet
EndChar
StartChar: uni2113
Encoding: 8467 8467 299
Width: 632
GlyphClass: 1
Flags: W
LayerCount: 2
Fore
SplineSet
197 144 m 2,1,-1
 197 178 l 1,2,-1
 131 130 l 1,3,-1
 131 214 l 1,4,-1
 197 264 l 1,5,-1
 197 484 l 2,6,7
 197 579 197 579 237 629.5 c 128,-1,8
 277 680 277 680 353 680 c 0,9,10
 420 680 420 680 457 641 c 128,-1,11
 494 602 494 602 494 536 c 0,12,13
 494 456 494 456 447.5 392.5 c 128,-1,14
 401 329 401 329 304 253 c 1,15,-1
 304 167 l 2,16,17
 304 77 304 77 369 77 c 0,18,19
 413 77 413 77 455 114 c 1,20,-1
 498 46 l 1,21,22
 473 21 473 21 435 4.5 c 128,-1,23
 397 -12 397 -12 352 -12 c 0,24,0
 197 -12 197 -12 197 144 c 2,1,-1
378 429.5 m 128,-1,26
 403 478 403 478 403 530 c 0,27,28
 403 565 403 565 390.5 583 c 128,-1,29
 378 601 378 601 355 601 c 0,30,31
 304 601 304 601 304 513 c 2,32,-1
 304 342 l 1,33,25
 353 381 353 381 378 429.5 c 128,-1,26
EndSplineSet
EndChar
StartChar: partialdiff
Encoding: 8706 8706 331
Width: 632
GlyphClass: 1
Flags: W
LayerCount: 2
Fore
SplineSet
194 15.5 m 128,-1,1
 139 43 139 43 105.5 98 c 128,-1,2
 72 153 72 153 72 233 c 0,3,4
 72 307 72 307 102.5 362 c 128,-1,5
 133 417 133 417 184 446 c 128,-1,6
 235 475 235 475 295 475 c 0,7,8
 359 475 359 475 403.5 447.5 c 128,-1,9
 448 420 448 420 467 374 c 1,10,11
 459 457 459 457 412 507 c 128,-1,12
 365 557 365 557 296 576 c 128,-1,13
 227 595 227 595 150 591 c 1,14,-1
 150 680 l 1,15,16
 353 680 353 680 456.5 583 c 128,-1,17
 560 486 560 486 560 294 c 0,18,19
 560 141 560 141 492 64.5 c 128,-1,20
 424 -12 424 -12 313 -12 c 0,21,0
 249 -12 249 -12 194 15.5 c 128,-1,1
409 117.5 m 128,-1,23
 447 158 447 158 447 231 c 0,24,25
 447 305 447 305 409 345.5 c 128,-1,26
 371 386 371 386 315 386 c 0,27,28
 258 386 258 386 220 345.5 c 128,-1,29
 182 305 182 305 182 231 c 0,30,31
 182 158 182 158 220.5 117.5 c 128,-1,32
 259 77 259 77 315 77 c 256,33,22
 371 77 371 77 409 117.5 c 128,-1,23
EndSplineSet
EndChar
StartChar: minus
Encoding: 8722 8722 312
Width: 632
GlyphClass: 1
Flags: W
LayerCount: 2
Fore
SplineSet
64 296 m 1,0,-1
 569 296 l 1,1,-1
 569 202 l 1,2,-1
 64 202 l 1,3,-1
 64 296 l 1,0,-1
EndSplineSet
EndChar
StartChar: integral
Encoding: 8747 8747 327
Width: 632
GlyphClass: 1
Flags: W
LayerCount: 2
Fore
SplineSet
154.5 -152.5 m 128,-1,1
 129 -132 129 -132 129 -103 c 0,2,3
 129 -79 129 -79 144 -64 c 128,-1,4
 159 -49 159 -49 183 -49 c 0,5,6
 208 -49 208 -49 222 -64 c 128,-1,7
 236 -79 236 -79 236 -104 c 0,8,9
 236 -112 236 -112 233 -122 c 1,10,11
 247 -116 247 -116 255 -95 c 128,-1,12
 263 -74 263 -74 264 -28 c 2,13,-1
 269 460 l 2,14,15
 270 582 270 582 308.5 631.5 c 128,-1,16
 347 681 347 681 410 681 c 0,17,18
 453 681 453 681 478.5 660.5 c 128,-1,19
 504 640 504 640 504 611 c 0,20,21
 504 588 504 588 489.5 573 c 128,-1,22
 475 558 475 558 451 558 c 0,23,24
 426 558 426 558 411.5 573 c 128,-1,25
 397 588 397 588 397 612 c 0,26,27
 397 621 397 621 400 630 c 1,28,29
 386 624 386 624 378 603.5 c 128,-1,30
 370 583 370 583 369 537 c 2,31,-1
 364 48 l 2,32,33
 363 -75 363 -75 324.5 -124 c 128,-1,34
 286 -173 286 -173 224 -173 c 0,35,0
 180 -173 180 -173 154.5 -152.5 c 128,-1,1
EndSplineSet
EndChar
StartChar: musicalnote
Encoding: 9834 9834 287
Width: 632
GlyphClass: 1
Flags: W
LayerCount: 2
Fore
SplineSet
108.5 24.5 m 128,-1,1
 75 59 75 59 75 109 c 0,2,3
 75 158 75 158 109.5 192.5 c 128,-1,4
 144 227 144 227 193 227 c 0,5,6
 230 227 230 227 257 209 c 1,7,-1
 257 668 l 1,8,-1
 319 668 l 1,9,10
 322 638 322 638 335.5 615 c 128,-1,11
 349 592 349 592 370.5 572.5 c 128,-1,12
 392 553 392 553 435 518 c 0,13,14
 493 471 493 471 525 429.5 c 128,-1,15
 557 388 557 388 557 334 c 0,16,17
 557 274 557 274 485 199 c 1,18,-1
 480 200 l 1,19,20
 470 281 470 281 427.5 334 c 128,-1,21
 385 387 385 387 319 415 c 1,22,-1
 319 144 l 2,23,24
 319 68 319 68 283 29 c 128,-1,25
 247 -10 247 -10 190 -10 c 0,26,0
 142 -10 142 -10 108.5 24.5 c 128,-1,1
EndSplineSet
EndChar
StartChar: uni0307.case
Encoding: 65541 -1 338
Width: 0
GlyphClass: 4
Flags: W
AnchorPoint: "Anchor-5" 316 851 basemark 0
AnchorPoint: "Anchor-5" 316 668 mark 0
AnchorPoint: "Anchor-1" 316 668 mark 0
LayerCount: 2
Fore
SplineSet
272.5 745.5 m 128,-1,1
 254 764 254 764 254 789 c 256,2,3
 254 814 254 814 272.5 832.5 c 128,-1,4
 291 851 291 851 316 851 c 0,5,6
 342 851 342 851 360 833 c 128,-1,7
 378 815 378 815 378 789 c 0,8,9
 378 764 378 764 360 745.5 c 128,-1,10
 342 727 342 727 316 727 c 0,11,0
 291 727 291 727 272.5 745.5 c 128,-1,1
EndSplineSet
EndChar
StartChar: uni030C.alt
Encoding: 65546 -1 346
Width: 0
GlyphClass: 4
Flags: W
AnchorPoint: "Anchor-3" 241 496 mark 0
LayerCount: 2
Fore
SplineSet
329 718 m 0,1,2
 348 718 348 718 360.5 707 c 128,-1,3
 373 696 373 696 373 678 c 0,4,5
 373 666 373 666 358 630 c 2,6,-1
 320 532 l 1,7,-1
 261 532 l 1,8,-1
 282 666 l 2,9,0
 291 718 291 718 329 718 c 0,1,2
EndSplineSet
EndChar
StartChar: uni0328.case
Encoding: 65554 -1 363
Width: 0
GlyphClass: 4
Flags: W
AnchorPoint: "Anchor-2" 407 10 mark 0
LayerCount: 2
Fore
SplineSet
254.5 -147.5 m 128,-1,1
 226 -123 226 -123 226 -89 c 0,2,3
 226 -26 226 -26 308 9 c 1,4,-1
 407 0 l 1,5,6
 372 -7 372 -7 344.5 -28.5 c 128,-1,7
 317 -50 317 -50 317 -74 c 0,8,9
 317 -92 317 -92 330 -101.5 c 128,-1,10
 343 -111 343 -111 363 -111 c 0,11,12
 379 -111 379 -111 407 -103 c 1,13,-1
 407 -163 l 1,14,15
 382 -172 382 -172 342 -172 c 0,16,0
 283 -172 283 -172 254.5 -147.5 c 128,-1,1
EndSplineSet
EndChar
